<svg width="218" height="179" viewBox="0 0 218 179" fill="none" xmlns="http://www.w3.org/2000/svg">
<path d="M53.0057 80.907C53.0057 80.907 49.3548 46.159 74.2068 41.4799C99.0587 36.8008 103.678 40.7254 120.988 28.8445C138.298 16.9635 192.988 52.0328 181.916 101.361C180.61 107.211 178.953 112.977 176.954 118.628" stroke="#BAC99D" stroke-width="3.7" stroke-miterlimit="10"/>
<path d="M160.187 57.9043H151.147V175.95H160.187V57.9043Z" stroke="#BAC99D" stroke-width="3.7" stroke-miterlimit="10"/>
<path d="M79.3167 148.756V57.9043H151.147V175.952H139.045V139.698C139.042 138.244 138.462 136.852 137.433 135.825C136.404 134.799 135.01 134.223 133.557 134.224H97.4285C95.9755 134.224 94.5815 134.8 93.5526 135.826C92.5237 136.852 91.944 138.245 91.9402 139.698V175.952H80.1615M79.3167 162.286V156.134M87.9346 119.354C87.8587 119.353 87.7837 119.338 87.7138 119.309C87.644 119.279 87.5805 119.236 87.5272 119.182C87.4739 119.128 87.4317 119.064 87.4034 118.994C87.3749 118.924 87.3603 118.848 87.361 118.773V114.127C87.361 113.975 87.4215 113.829 87.5291 113.721C87.6367 113.614 87.7825 113.553 87.9346 113.553H97.3023C97.3782 113.553 97.4534 113.567 97.5237 113.596C97.5939 113.624 97.6579 113.666 97.7119 113.72C97.7657 113.773 97.8088 113.836 97.8381 113.906C97.8673 113.976 97.8828 114.051 97.883 114.127V118.773C97.8833 118.849 97.8685 118.925 97.8395 118.995C97.8104 119.066 97.7676 119.13 97.7136 119.184C97.6595 119.238 97.5955 119.281 97.5248 119.31C97.4544 119.339 97.3787 119.354 97.3023 119.354H87.9346ZM104.402 126.893C104.401 127.046 104.339 127.193 104.23 127.301C104.121 127.409 103.974 127.469 103.821 127.469H94.4535C94.3002 127.469 94.1533 127.409 94.0446 127.301C93.9358 127.193 93.8739 127.046 93.8727 126.893V122.243C93.8746 122.09 93.9365 121.944 94.0453 121.837C94.154 121.729 94.3007 121.669 94.4535 121.669H103.821C103.974 121.669 104.121 121.729 104.229 121.837C104.338 121.944 104.4 122.09 104.402 122.243V126.893ZM99.718 118.773V114.127C99.7182 114.051 99.7337 113.976 99.763 113.906C99.7923 113.836 99.8353 113.773 99.8891 113.72C99.9432 113.666 100.007 113.624 100.077 113.596C100.148 113.567 100.223 113.553 100.299 113.553H109.666C109.819 113.553 109.966 113.614 110.075 113.721C110.183 113.828 110.245 113.974 110.247 114.127V118.773C110.246 118.927 110.185 119.074 110.076 119.183C109.967 119.291 109.82 119.353 109.666 119.354H100.296C100.22 119.354 100.145 119.339 100.075 119.309C100.004 119.28 99.9403 119.237 99.8865 119.183C99.8327 119.129 99.7904 119.065 99.7613 118.995C99.7325 118.924 99.7178 118.849 99.718 118.773ZM116.716 126.893C116.716 126.969 116.702 127.044 116.673 127.114C116.644 127.183 116.602 127.247 116.549 127.3C116.496 127.354 116.432 127.396 116.363 127.425C116.293 127.454 116.218 127.469 116.142 127.469H106.765C106.69 127.469 106.615 127.454 106.545 127.425C106.475 127.396 106.412 127.354 106.359 127.3C106.305 127.247 106.263 127.183 106.235 127.114C106.206 127.044 106.191 126.969 106.192 126.893V122.243C106.192 122.091 106.252 121.945 106.36 121.837C106.467 121.73 106.613 121.669 106.765 121.669H116.14C116.292 121.669 116.438 121.73 116.546 121.837C116.653 121.945 116.714 122.091 116.714 122.243L116.716 126.893ZM122.599 118.773C122.6 118.849 122.585 118.925 122.556 118.995C122.527 119.066 122.484 119.13 122.43 119.184C122.376 119.238 122.312 119.281 122.241 119.31C122.171 119.339 122.095 119.354 122.019 119.354H112.651C112.575 119.353 112.5 119.338 112.43 119.309C112.36 119.279 112.296 119.236 112.243 119.182C112.189 119.128 112.147 119.065 112.118 118.994C112.089 118.924 112.075 118.849 112.075 118.773V114.127C112.075 114.051 112.09 113.977 112.119 113.907C112.148 113.837 112.19 113.774 112.244 113.721C112.297 113.667 112.361 113.625 112.431 113.596C112.501 113.568 112.575 113.553 112.651 113.553H122.016C122.092 113.553 122.167 113.567 122.238 113.596C122.308 113.624 122.372 113.666 122.426 113.72C122.48 113.773 122.523 113.836 122.552 113.906C122.581 113.976 122.597 114.051 122.597 114.127L122.599 118.773ZM134.954 118.773C134.955 118.848 134.94 118.924 134.912 118.994C134.883 119.064 134.841 119.128 134.788 119.182C134.734 119.236 134.671 119.279 134.601 119.309C134.531 119.338 134.456 119.353 134.38 119.354H125.01C124.934 119.354 124.858 119.339 124.788 119.31C124.717 119.281 124.653 119.238 124.599 119.184C124.545 119.13 124.502 119.066 124.473 118.995C124.444 118.925 124.429 118.849 124.43 118.773V114.127C124.43 114.051 124.445 113.976 124.475 113.906C124.504 113.836 124.547 113.773 124.601 113.72C124.655 113.666 124.719 113.624 124.789 113.596C124.859 113.567 124.934 113.553 125.01 113.553H134.378C134.53 113.553 134.676 113.614 134.784 113.721C134.891 113.829 134.952 113.975 134.952 114.127L134.954 118.773ZM143.627 101.33C143.629 102.05 143.488 102.763 143.214 103.429C142.94 104.095 142.537 104.7 142.028 105.21C141.52 105.719 140.916 106.124 140.251 106.4C139.586 106.676 138.873 106.818 138.153 106.818H92.4185C90.9632 106.817 89.5676 106.239 88.5384 105.21C87.5093 104.181 86.931 102.785 86.9303 101.33V81.978C86.9303 80.5224 87.5086 79.1263 88.5377 78.0972C89.5671 77.0678 90.9629 76.4897 92.4185 76.4897H138.143C138.863 76.4897 139.576 76.6318 140.241 76.9076C140.906 77.1837 141.51 77.5881 142.019 78.0979C142.527 78.6079 142.93 79.2129 143.205 79.8788C143.479 80.5445 143.619 81.2578 143.617 81.978L143.627 101.33ZM142.825 70.0804C142.573 70.3355 142.272 70.5378 141.941 70.6756C141.611 70.8132 141.255 70.8836 140.897 70.8824H90.0909C89.3672 70.8817 88.6731 70.594 88.1612 70.082C87.6495 69.5703 87.3618 68.8763 87.361 68.1526C87.3637 67.4293 87.6519 66.7365 88.1633 66.225C88.6748 65.7136 89.3676 65.4251 90.0909 65.4227H140.892C141.251 65.4222 141.606 65.4927 141.937 65.6298C142.268 65.7669 142.569 65.968 142.823 66.2214C143.077 66.4752 143.278 66.7762 143.415 67.1075C143.552 67.4388 143.622 67.7939 143.622 68.1526C143.623 68.5108 143.553 68.8659 143.416 69.1969C143.279 69.528 143.077 69.8283 142.822 70.0804H142.825Z" stroke="#BAC99D" stroke-width="3.7" stroke-miterlimit="10"/>
<path d="M97.3023 119.354H87.9346C87.8587 119.354 87.7837 119.338 87.7138 119.309C87.644 119.28 87.5805 119.236 87.5272 119.183C87.4739 119.129 87.4317 119.065 87.4032 118.994C87.3749 118.924 87.3603 118.849 87.361 118.773V114.127C87.361 113.975 87.4215 113.829 87.5291 113.722C87.6367 113.614 87.7825 113.554 87.9346 113.554H97.3023C97.3782 113.553 97.4534 113.568 97.5237 113.596C97.5939 113.624 97.6579 113.667 97.7119 113.72C97.7657 113.773 97.8085 113.837 97.8381 113.906C97.8673 113.976 97.8828 114.051 97.883 114.127V118.773C97.8833 118.849 97.8685 118.925 97.8395 118.996C97.8104 119.066 97.7676 119.131 97.7136 119.184C97.6596 119.238 97.5955 119.281 97.5248 119.31C97.4544 119.339 97.3787 119.354 97.3023 119.354Z" stroke="#BAC99D" stroke-width="3.7" stroke-miterlimit="10"/>
<path d="M94.4534 121.67H103.821C103.974 121.67 104.121 121.73 104.229 121.837C104.338 121.945 104.4 122.091 104.402 122.244V126.894C104.401 127.047 104.339 127.194 104.23 127.301C104.121 127.409 103.974 127.47 103.821 127.47H94.4534C94.3002 127.47 94.1533 127.409 94.0445 127.301C93.9358 127.194 93.8739 127.047 93.8727 126.894V122.244C93.8746 122.091 93.9365 121.945 94.0453 121.837C94.154 121.73 94.3006 121.67 94.4534 121.67Z" stroke="#BAC99D" stroke-width="3.7" stroke-miterlimit="10"/>
<path d="M110.245 114.127V118.773C110.244 118.927 110.183 119.074 110.074 119.183C109.965 119.292 109.818 119.353 109.664 119.354H100.296C100.22 119.354 100.144 119.339 100.074 119.31C100.003 119.281 99.9391 119.238 99.8851 119.184C99.831 119.131 99.7882 119.066 99.7592 118.996C99.7301 118.925 99.7154 118.849 99.7156 118.773V114.127C99.7158 114.051 99.7313 113.976 99.7606 113.906C99.7899 113.837 99.8329 113.773 99.8867 113.72C99.9408 113.667 100.005 113.624 100.075 113.596C100.145 113.568 100.22 113.553 100.296 113.554H109.664C109.817 113.554 109.963 113.614 110.072 113.721C110.181 113.829 110.243 113.975 110.245 114.127Z" stroke="#BAC99D" stroke-width="3.7" stroke-miterlimit="10"/>
<path d="M116.14 121.67H106.765C106.448 121.67 106.192 121.927 106.192 122.244V126.896C106.192 127.213 106.448 127.47 106.765 127.47H116.14C116.457 127.47 116.714 127.213 116.714 126.896V122.244C116.714 121.927 116.457 121.67 116.14 121.67Z" stroke="#BAC99D" stroke-width="3.7" stroke-miterlimit="10"/>
<path d="M112.651 119.354C112.575 119.354 112.5 119.338 112.43 119.309C112.36 119.28 112.296 119.237 112.243 119.183C112.189 119.129 112.147 119.065 112.118 118.995C112.089 118.924 112.075 118.849 112.075 118.773V114.127C112.075 114.052 112.09 113.977 112.119 113.907C112.148 113.837 112.19 113.774 112.244 113.721C112.297 113.668 112.361 113.625 112.431 113.597C112.5 113.568 112.575 113.553 112.651 113.554H122.016C122.092 113.553 122.167 113.568 122.238 113.596C122.308 113.624 122.372 113.667 122.426 113.72C122.48 113.773 122.523 113.837 122.552 113.906C122.581 113.976 122.597 114.051 122.597 114.127V118.773C122.597 118.849 122.582 118.925 122.553 118.996C122.524 119.066 122.482 119.131 122.427 119.184C122.373 119.238 122.309 119.281 122.239 119.31C122.168 119.339 122.093 119.354 122.016 119.354H112.651Z" stroke="#BAC99D" stroke-width="3.7" stroke-miterlimit="10"/>
<path d="M125.01 119.354C124.934 119.354 124.858 119.339 124.788 119.31C124.717 119.281 124.653 119.238 124.599 119.184C124.545 119.131 124.502 119.066 124.473 118.996C124.444 118.925 124.429 118.849 124.43 118.773V114.127C124.43 114.051 124.445 113.976 124.475 113.906C124.504 113.837 124.547 113.773 124.601 113.72C124.655 113.667 124.719 113.624 124.789 113.596C124.859 113.568 124.934 113.553 125.01 113.554H134.378C134.53 113.554 134.676 113.614 134.783 113.722C134.891 113.829 134.952 113.975 134.952 114.127V118.773C134.952 118.849 134.938 118.924 134.909 118.994C134.881 119.065 134.839 119.129 134.785 119.183C134.732 119.236 134.669 119.28 134.599 119.309C134.529 119.338 134.454 119.354 134.378 119.354H125.01Z" stroke="#BAC99D" stroke-width="3.7" stroke-miterlimit="10"/>
<path d="M139.045 139.699V175.953H91.9402V139.699C91.944 138.245 92.5237 136.853 93.5526 135.827C94.5815 134.801 95.9754 134.225 97.4284 134.225H133.557C135.01 134.224 136.404 134.8 137.433 135.826C138.462 136.853 139.042 138.245 139.045 139.699Z" stroke="#BAC99D" stroke-width="3.7" stroke-miterlimit="10"/>
<path d="M87.361 68.1527C87.3636 67.4294 87.6519 66.7364 88.1633 66.2252C88.6748 65.7137 89.3676 65.4252 90.0909 65.4229H140.892C141.251 65.4224 141.606 65.4928 141.937 65.6299C142.268 65.767 142.569 65.9681 142.823 66.2216C143.077 66.4751 143.278 66.7761 143.415 67.1077C143.552 67.439 143.622 67.794 143.622 68.1527C143.619 68.8758 143.331 69.5688 142.82 70.08C142.308 70.5915 141.615 70.88 140.892 70.8826H90.0909C89.3671 70.8819 88.6731 70.5941 88.1614 70.0822C87.6495 69.5705 87.3617 68.8765 87.361 68.1527Z" stroke="#BAC99D" stroke-width="3.7" stroke-miterlimit="10"/>
<path d="M112.541 84.6845V98.6479C112.542 99.1553 112.443 99.658 112.249 100.127C112.055 100.596 111.771 101.022 111.413 101.382C111.054 101.741 110.628 102.026 110.16 102.22C109.691 102.415 109.188 102.515 108.681 102.515H95.1412C94.1167 102.514 93.1344 102.106 92.4104 101.381C91.6867 100.656 91.2802 99.6725 91.2809 98.6479V84.6845C91.2806 84.1773 91.3801 83.6749 91.5741 83.206C91.7678 82.7374 92.052 82.3114 92.4107 81.9525C92.7691 81.5935 93.1946 81.3087 93.6633 81.1142C94.1317 80.9198 94.6341 80.8196 95.1412 80.8193H108.681C109.188 80.8193 109.691 80.9193 110.16 81.1137C110.628 81.3079 111.054 81.5926 111.412 81.9517C111.771 82.3106 112.055 82.7367 112.249 83.2058C112.443 83.6746 112.542 84.177 112.541 84.6845Z" stroke="#BAC99D" stroke-width="3.7" stroke-miterlimit="10"/>
<path d="M139.128 84.6673V98.6665C139.129 99.1739 139.03 99.6765 138.836 100.146C138.642 100.614 138.358 101.041 138 101.4C137.641 101.759 137.215 102.044 136.747 102.239C136.278 102.433 135.775 102.534 135.268 102.534H121.702C121.194 102.534 120.692 102.433 120.223 102.239C119.754 102.044 119.328 101.759 118.97 101.4C118.611 101.041 118.327 100.615 118.133 100.146C117.939 99.6768 117.839 99.1741 117.839 98.6665V84.6673C117.839 84.1597 117.939 83.657 118.133 83.1879C118.327 82.719 118.611 82.2928 118.97 81.9336C119.328 81.5745 119.754 81.2894 120.223 81.0949C120.692 80.9005 121.194 80.8 121.702 80.7998H135.268C135.775 80.8 136.278 80.9005 136.747 81.0949C137.215 81.2896 137.641 81.5745 138 81.9336C138.358 82.2928 138.642 82.719 138.836 83.1881C139.03 83.6572 139.129 84.1599 139.128 84.6673Z" stroke="#BAC99D" stroke-width="3.7" stroke-miterlimit="10"/>
<path d="M138.143 76.4902H92.4185C90.9629 76.4902 89.567 77.0683 88.5377 78.0977C87.5086 79.1268 86.9302 80.5229 86.9302 81.9785V101.33C86.931 102.786 87.5093 104.181 88.5384 105.21C89.5675 106.239 90.9631 106.818 92.4185 106.819H138.143C138.863 106.819 139.576 106.676 140.241 106.4C140.906 106.124 141.51 105.72 142.019 105.21C142.527 104.7 142.93 104.095 143.205 103.429C143.479 102.764 143.619 102.05 143.617 101.33V81.9785C143.619 81.2583 143.479 80.545 143.205 79.8791C142.93 79.2134 142.527 78.6082 142.019 78.0984C141.51 77.5886 140.906 77.1842 140.241 76.9082C139.576 76.6321 138.863 76.4902 138.143 76.4902ZM112.541 98.648C112.542 99.1554 112.443 99.6581 112.249 100.127C112.055 100.596 111.771 101.022 111.413 101.381C111.054 101.741 110.628 102.026 110.16 102.22C109.691 102.415 109.188 102.515 108.681 102.516H95.1412C94.1166 102.514 93.1344 102.106 92.4104 101.381C91.6864 100.656 91.2802 99.6726 91.2809 98.648V84.6846C91.2806 84.1772 91.3801 83.6747 91.5741 83.2061C91.7678 82.7372 92.052 82.3112 92.4107 81.9523C92.7691 81.5934 93.1946 81.3088 93.6633 81.1143C94.1316 80.9199 94.6341 80.8197 95.1412 80.8195H108.681C109.188 80.8195 109.691 80.9194 110.16 81.1136C110.628 81.3078 111.054 81.5927 111.412 81.9516C111.771 82.3108 112.055 82.7368 112.249 83.2056C112.443 83.6745 112.542 84.1772 112.541 84.6846V98.648ZM139.128 98.6671C139.129 99.1745 139.03 99.6771 138.836 100.146C138.642 100.615 138.358 101.041 138 101.4C137.641 101.76 137.215 102.045 136.747 102.239C136.278 102.434 135.775 102.534 135.268 102.535H121.702C121.194 102.534 120.692 102.434 120.223 102.239C119.754 102.045 119.328 101.76 118.97 101.401C118.611 101.042 118.326 100.615 118.133 100.146C117.939 99.6771 117.839 99.1745 117.839 98.6671V84.6679C117.839 84.1603 117.939 83.6576 118.133 83.1885C118.326 82.7194 118.611 82.2931 118.97 81.934C119.328 81.5749 119.754 81.29 120.223 81.0955C120.692 80.9008 121.194 80.8006 121.702 80.8004H135.268C135.775 80.8006 136.278 80.9008 136.747 81.0955C137.215 81.29 137.641 81.5751 138 81.9342C138.358 82.2934 138.642 82.7196 138.836 83.1887C139.03 83.6578 139.129 84.1603 139.128 84.6679V98.6671Z" stroke="#BAC99D" stroke-width="3.7" stroke-miterlimit="10"/>
<path d="M112.541 84.6845V98.6479C112.542 99.1553 112.443 99.658 112.249 100.127C112.055 100.596 111.771 101.022 111.413 101.382C111.054 101.741 110.628 102.026 110.16 102.22C109.691 102.415 109.188 102.515 108.681 102.515H95.1412C94.1167 102.514 93.1344 102.106 92.4104 101.381C91.6867 100.656 91.2802 99.6725 91.2809 98.6479V84.6845C91.2806 84.1773 91.3801 83.6749 91.5741 83.206C91.7678 82.7374 92.052 82.3114 92.4107 81.9525C92.7691 81.5935 93.1946 81.3087 93.6633 81.1142C94.1317 80.9198 94.6341 80.8196 95.1412 80.8193H108.681C109.188 80.8193 109.691 80.9193 110.16 81.1137C110.628 81.3079 111.054 81.5926 111.412 81.9517C111.771 82.3106 112.055 82.7367 112.249 83.2058C112.443 83.6746 112.542 84.177 112.541 84.6845Z" stroke="#BAC99D" stroke-width="3.7" stroke-miterlimit="10"/>
<path d="M139.128 84.6673V98.6665C139.129 99.1739 139.03 99.6765 138.836 100.146C138.642 100.614 138.358 101.041 138 101.4C137.641 101.759 137.215 102.044 136.747 102.239C136.278 102.433 135.775 102.534 135.268 102.534H121.702C121.194 102.534 120.692 102.433 120.223 102.239C119.754 102.044 119.328 101.759 118.97 101.4C118.611 101.041 118.327 100.615 118.133 100.146C117.939 99.6768 117.839 99.1741 117.839 98.6665V84.6673C117.839 84.1597 117.939 83.657 118.133 83.1879C118.327 82.719 118.611 82.2928 118.97 81.9336C119.328 81.5745 119.754 81.2894 120.223 81.0949C120.692 80.9005 121.194 80.8 121.702 80.7998H135.268C135.775 80.8 136.278 80.9005 136.747 81.0949C137.215 81.2896 137.641 81.5745 138 81.9336C138.358 82.2928 138.642 82.719 138.836 83.1881C139.03 83.6572 139.129 84.1599 139.128 84.6673Z" stroke="#BAC99D" stroke-width="3.7" stroke-miterlimit="10"/>
<path d="M139.128 84.6673V98.6665C139.129 99.1739 139.03 99.6765 138.836 100.146C138.642 100.614 138.358 101.041 138 101.4C137.641 101.759 137.215 102.044 136.747 102.239C136.278 102.433 135.775 102.534 135.268 102.534H121.702C121.194 102.534 120.692 102.433 120.223 102.239C119.754 102.044 119.328 101.759 118.97 101.4C118.611 101.041 118.327 100.615 118.133 100.146C117.939 99.6768 117.839 99.1741 117.839 98.6665V84.6673C117.839 84.1597 117.939 83.657 118.133 83.1879C118.327 82.719 118.611 82.2928 118.97 81.9336C119.328 81.5745 119.754 81.2894 120.223 81.0949C120.692 80.9005 121.194 80.8 121.702 80.7998H135.268C135.775 80.8 136.278 80.9005 136.747 81.0949C137.215 81.2896 137.641 81.5745 138 81.9336C138.358 82.2928 138.642 82.719 138.836 83.1881C139.03 83.6572 139.129 84.1599 139.128 84.6673Z" stroke="#BAC99D" stroke-width="3.7" stroke-miterlimit="10"/>
<path d="M112.541 84.6845V98.6479C112.542 99.1553 112.443 99.658 112.249 100.127C112.055 100.596 111.771 101.022 111.413 101.382C111.054 101.741 110.628 102.026 110.16 102.22C109.691 102.415 109.188 102.515 108.681 102.515H95.1412C94.1167 102.514 93.1344 102.106 92.4104 101.381C91.6867 100.656 91.2802 99.6725 91.2809 98.6479V84.6845C91.2806 84.1773 91.3801 83.6749 91.5741 83.206C91.7678 82.7374 92.052 82.3114 92.4107 81.9525C92.7691 81.5935 93.1946 81.3087 93.6633 81.1142C94.1317 80.9198 94.6341 80.8196 95.1412 80.8193H108.681C109.188 80.8193 109.691 80.9193 110.16 81.1137C110.628 81.3079 111.054 81.5926 111.412 81.9517C111.771 82.3106 112.055 82.7367 112.249 83.2058C112.443 83.6746 112.542 84.177 112.541 84.6845Z" stroke="#BAC99D" stroke-width="3.7" stroke-miterlimit="10"/>
<path d="M139.045 139.699V175.953H91.9402V139.699C91.944 138.245 92.5237 136.853 93.5526 135.827C94.5815 134.801 95.9754 134.225 97.4284 134.225H133.557C135.01 134.224 136.404 134.8 137.433 135.826C138.462 136.853 139.042 138.245 139.045 139.699Z" stroke="#BAC99D" stroke-width="3.7" stroke-miterlimit="10"/>
<path d="M97.883 114.127V118.773C97.8833 118.849 97.8685 118.925 97.8395 118.996C97.8104 119.066 97.7676 119.131 97.7136 119.184C97.6596 119.238 97.5955 119.281 97.5248 119.31C97.4544 119.339 97.3787 119.354 97.3023 119.354H87.9346C87.8587 119.354 87.7837 119.338 87.7138 119.309C87.644 119.28 87.5805 119.236 87.5272 119.183C87.4739 119.129 87.4317 119.065 87.4032 118.994C87.3749 118.924 87.3603 118.849 87.361 118.773V114.127C87.361 113.975 87.4215 113.829 87.5291 113.722C87.6367 113.614 87.7825 113.554 87.9346 113.554H97.3023C97.3782 113.553 97.4534 113.568 97.5237 113.596C97.5939 113.624 97.6579 113.667 97.7119 113.72C97.7657 113.773 97.8085 113.837 97.8381 113.906C97.8673 113.976 97.8828 114.051 97.883 114.127Z" stroke="#BAC99D" stroke-width="3.7" stroke-miterlimit="10"/>
<path d="M110.245 114.127V118.773C110.244 118.927 110.183 119.074 110.074 119.183C109.965 119.292 109.818 119.353 109.664 119.354H100.296C100.22 119.354 100.144 119.339 100.074 119.31C100.003 119.281 99.9391 119.238 99.8851 119.184C99.831 119.131 99.7882 119.066 99.7592 118.996C99.7301 118.925 99.7154 118.849 99.7156 118.773V114.127C99.7158 114.051 99.7313 113.976 99.7606 113.906C99.7899 113.837 99.8329 113.773 99.8867 113.72C99.9408 113.667 100.005 113.624 100.075 113.596C100.145 113.568 100.22 113.553 100.296 113.554H109.664C109.817 113.554 109.963 113.614 110.072 113.721C110.181 113.829 110.243 113.975 110.245 114.127Z" stroke="#BAC99D" stroke-width="3.7" stroke-miterlimit="10"/>
<path d="M122.597 114.127V118.773C122.597 118.849 122.582 118.925 122.553 118.996C122.524 119.066 122.482 119.131 122.427 119.184C122.373 119.238 122.309 119.281 122.239 119.31C122.168 119.339 122.093 119.354 122.016 119.354H112.651C112.575 119.354 112.5 119.338 112.43 119.309C112.36 119.28 112.296 119.237 112.243 119.183C112.189 119.129 112.147 119.065 112.118 118.995C112.089 118.924 112.075 118.849 112.075 118.773V114.127C112.075 114.052 112.09 113.977 112.119 113.907C112.148 113.837 112.19 113.774 112.244 113.721C112.297 113.668 112.361 113.625 112.431 113.597C112.5 113.568 112.575 113.553 112.651 113.554H122.016C122.092 113.553 122.167 113.568 122.238 113.596C122.308 113.624 122.372 113.667 122.426 113.72C122.48 113.773 122.523 113.837 122.552 113.906C122.581 113.976 122.597 114.051 122.597 114.127Z" stroke="#BAC99D" stroke-width="3.7" stroke-miterlimit="10"/>
<path d="M134.942 114.127V118.773C134.943 118.849 134.928 118.924 134.9 118.994C134.871 119.065 134.829 119.129 134.776 119.183C134.723 119.236 134.659 119.28 134.589 119.309C134.519 119.338 134.444 119.354 134.368 119.354H125.01C124.934 119.354 124.858 119.339 124.788 119.31C124.717 119.281 124.653 119.238 124.599 119.184C124.545 119.131 124.502 119.066 124.473 118.996C124.444 118.925 124.429 118.849 124.43 118.773V114.127C124.43 114.051 124.445 113.976 124.475 113.906C124.504 113.837 124.547 113.773 124.601 113.72C124.655 113.667 124.719 113.624 124.789 113.596C124.859 113.568 124.934 113.553 125.01 113.554H134.378C134.528 113.556 134.672 113.618 134.777 113.725C134.883 113.832 134.942 113.977 134.942 114.127Z" stroke="#BAC99D" stroke-width="3.7" stroke-miterlimit="10"/>
<path d="M104.402 122.244V126.894C104.401 127.047 104.339 127.194 104.23 127.301C104.121 127.409 103.974 127.47 103.821 127.47H94.4534C94.3002 127.47 94.1533 127.409 94.0445 127.301C93.9358 127.194 93.8739 127.047 93.8727 126.894V122.244C93.8746 122.091 93.9365 121.945 94.0453 121.837C94.154 121.73 94.3006 121.67 94.4534 121.67H103.821C103.974 121.67 104.121 121.73 104.229 121.837C104.338 121.945 104.4 122.091 104.402 122.244Z" stroke="#BAC99D" stroke-width="3.7" stroke-miterlimit="10"/>
<path d="M116.14 121.67H106.765C106.448 121.67 106.192 121.927 106.192 122.244V126.896C106.192 127.213 106.448 127.47 106.765 127.47H116.14C116.457 127.47 116.714 127.213 116.714 126.896V122.244C116.714 121.927 116.457 121.67 116.14 121.67Z" stroke="#BAC99D" stroke-width="3.7" stroke-miterlimit="10"/>
<path d="M143.624 68.1527C143.622 68.8762 143.333 69.5695 142.821 70.081C142.309 70.5925 141.616 70.8807 140.892 70.8826H90.0909C89.3671 70.8819 88.6731 70.5941 88.1614 70.0822C87.6495 69.5705 87.3617 68.8765 87.361 68.1527C87.3636 67.4294 87.6519 66.7364 88.1633 66.2252C88.6748 65.7137 89.3676 65.4252 90.0909 65.4229H140.892C141.251 65.4221 141.606 65.4924 141.938 65.6292C142.269 65.7661 142.571 65.9672 142.825 66.2209C143.078 66.4743 143.28 66.7754 143.417 67.1069C143.554 67.4385 143.624 67.7938 143.624 68.1527Z" stroke="#BAC99D" stroke-width="3.7" stroke-miterlimit="10"/>
<path d="M133.409 138.417H97.4356C96.5826 138.417 95.891 139.108 95.891 139.962V140.021C95.891 140.874 96.5826 141.566 97.4356 141.566H133.409C134.262 141.566 134.954 140.874 134.954 140.021V139.962C134.954 139.108 134.262 138.417 133.409 138.417Z" stroke="#BAC99D" stroke-width="3.7" stroke-miterlimit="10"/>
<path d="M133.409 144.915H97.4356C96.5826 144.915 95.891 145.606 95.891 146.46V146.519C95.891 147.372 96.5826 148.064 97.4356 148.064H133.409C134.262 148.064 134.954 147.372 134.954 146.519V146.46C134.954 145.606 134.262 144.915 133.409 144.915Z" stroke="#BAC99D" stroke-width="3.7" stroke-miterlimit="10"/>
<path d="M133.409 151.412H97.4356C96.5826 151.412 95.891 152.104 95.891 152.957V153.016C95.891 153.869 96.5826 154.561 97.4356 154.561H133.409C134.262 154.561 134.954 153.869 134.954 153.016V152.957C134.954 152.104 134.262 151.412 133.409 151.412Z" stroke="#BAC99D" stroke-width="3.7" stroke-miterlimit="10"/>
<path d="M133.409 157.912H97.4356C96.5826 157.912 95.891 158.604 95.891 159.457V159.516C95.891 160.369 96.5826 161.061 97.4356 161.061H133.409C134.262 161.061 134.954 160.369 134.954 159.516V159.457C134.954 158.604 134.262 157.912 133.409 157.912Z" stroke="#BAC99D" stroke-width="3.7" stroke-miterlimit="10"/>
<path d="M133.409 164.409H97.4356C96.5826 164.409 95.891 165.101 95.891 165.954V166.013C95.891 166.866 96.5826 167.558 97.4356 167.558H133.409C134.262 167.558 134.954 166.866 134.954 166.013V165.954C134.954 165.101 134.262 164.409 133.409 164.409Z" stroke="#BAC99D" stroke-width="3.7" stroke-miterlimit="10"/>
<path d="M72.6741 47.1514H164.561C166.001 47.1514 167.383 47.7235 168.401 48.7422C169.42 49.7606 169.992 51.1422 169.992 52.5825V57.8185H67.2429V52.5825C67.2429 51.1422 67.815 49.7606 68.8337 48.7422C69.8521 47.7235 71.2337 47.1514 72.6741 47.1514Z" stroke="#BAC99D" stroke-width="3.7" stroke-miterlimit="10"/>
<path d="M160.184 131.953H170.064V140.942H179.438V151.267H188.568V159.352H197.553V166.465H216.1V175.947H160.184V131.953Z" stroke="#BAC99D" stroke-width="3.7" stroke-miterlimit="10"/>
<path d="M162.048 112.05H170.128H170.373L179.453 121.132L188.606 130.283L197.555 139.232L201.787 143.463" stroke="#BAC99D" stroke-width="3.7" stroke-miterlimit="10"/>
<path d="M170.128 140.943V112.05" stroke="#BAC99D" stroke-width="3.7" stroke-miterlimit="10"/>
<path d="M197.555 159.354V139.231" stroke="#BAC99D" stroke-width="3.7" stroke-miterlimit="10"/>
<path d="M179.453 144.988V121.129" stroke="#BAC99D" stroke-width="3.7" stroke-miterlimit="10"/>
<path d="M188.568 130.282V152.057" stroke="#BAC99D" stroke-width="3.7" stroke-miterlimit="10"/>
<path d="M79.2809 156.187V162.286" stroke="#BAC99D" stroke-width="3.7" stroke-miterlimit="10"/>
<path d="M70.2417 162.287V158.536C70.6249 159.635 71.6554 160.594 72.9835 161.068C72.5527 157.926 71.7102 152.976 70.2417 148.547" stroke="#BAC99D" stroke-width="3.7" stroke-miterlimit="10"/>
<path d="M79.2809 143.97V91.6572H70.2417V141.618" stroke="#BAC99D" stroke-width="3.7" stroke-miterlimit="10"/>
<path d="M70.2417 158.54V162.286" stroke="#BAC99D" stroke-width="3.7" stroke-miterlimit="10"/>
<path d="M70.2417 141.618V91.6572H13.9737V175.952H69.511H70.2417" stroke="#BAC99D" stroke-width="3.7" stroke-miterlimit="10"/>
<path d="M31.0883 104.003V136.94C31.0883 139.912 33.4976 142.321 36.4695 142.321H49.0835C52.0554 142.321 54.4647 139.912 54.4647 136.94V104.003C54.4647 101.031 52.0554 98.6221 49.0835 98.6221H36.4695C33.4976 98.6221 31.0883 101.031 31.0883 104.003Z" stroke="#BAC99D" stroke-width="3.7" stroke-miterlimit="10"/>
<path d="M34.4132 105.878V114.713C34.4132 116.807 36.1106 118.504 38.2045 118.504H47.3723C49.4662 118.504 51.1636 116.807 51.1636 114.713V105.878C51.1636 103.784 49.4662 102.087 47.3723 102.087H38.2045C36.1106 102.087 34.4132 103.784 34.4132 105.878Z" stroke="#BAC99D" stroke-width="3.7" stroke-miterlimit="10"/>
<path d="M34.4275 126.368V135.176C34.4275 137.27 36.1249 138.967 38.2188 138.967H47.358C49.4519 138.967 51.1493 137.27 51.1493 135.176V126.368C51.1493 124.274 49.4519 122.576 47.358 122.576H38.2188C36.1249 122.576 34.4275 124.274 34.4275 126.368Z" stroke="#BAC99D" stroke-width="3.7" stroke-miterlimit="10"/>
<path d="M31.9713 147.307H22.5846C22.2704 147.307 22.0157 147.561 22.0157 147.875V152.54C22.0157 152.854 22.2704 153.109 22.5846 153.109H31.9713C32.2854 153.109 32.5401 152.854 32.5401 152.54V147.875C32.5401 147.561 32.2854 147.307 31.9713 147.307Z" stroke="#BAC99D" stroke-width="3.7" stroke-miterlimit="10"/>
<path d="M44.3283 147.307H34.9415C34.6274 147.307 34.3727 147.561 34.3727 147.875V152.54C34.3727 152.854 34.6274 153.109 34.9415 153.109H44.3283C44.6424 153.109 44.8971 152.854 44.8971 152.54V147.875C44.8971 147.561 44.6424 147.307 44.3283 147.307Z" stroke="#BAC99D" stroke-width="3.7" stroke-miterlimit="10"/>
<path d="M56.6852 147.307H47.2985C46.9843 147.307 46.7297 147.561 46.7297 147.875V152.54C46.7297 152.854 46.9843 153.109 47.2985 153.109H56.6852C56.9994 153.109 57.254 152.854 57.254 152.54V147.875C57.254 147.561 56.9994 147.307 56.6852 147.307Z" stroke="#BAC99D" stroke-width="3.7" stroke-miterlimit="10"/>
<path d="M38.4877 155.425H29.101C28.7869 155.425 28.5322 155.679 28.5322 155.994V160.658C28.5322 160.973 28.7869 161.227 29.101 161.227H38.4877C38.8019 161.227 39.0566 160.973 39.0566 160.658V155.994C39.0566 155.679 38.8019 155.425 38.4877 155.425Z" stroke="#BAC99D" stroke-width="3.7" stroke-miterlimit="10"/>
<path d="M50.8019 155.425H41.4151C41.101 155.425 40.8463 155.679 40.8463 155.994V160.658C40.8463 160.973 41.101 161.227 41.4151 161.227H50.8019C51.116 161.227 51.3707 160.973 51.3707 160.658V155.994C51.3707 155.679 51.116 155.425 50.8019 155.425Z" stroke="#BAC99D" stroke-width="3.7" stroke-miterlimit="10"/>
<path d="M7.43587 80.9062H79.3119V91.5663H1.89999V86.4445C1.90061 84.9763 2.484 83.5683 3.52196 82.5299C4.55993 81.4915 5.96765 80.9074 7.43587 80.9062Z" stroke="#BAC99D" stroke-width="3.7" stroke-miterlimit="10"/>
<path d="M74.847 150.934C75.3397 150.535 75.9109 150.166 76.306 149.725C77.415 148.485 76.989 146.9 77.7006 145.539C78.5669 143.873 81.2897 142.719 83.9672 142.871C83.7137 143.654 83.5397 144.461 83.4483 145.279C83.3698 146.008 83.5602 146.817 83.3508 147.524C83.0104 148.657 81.1921 149.344 80.9708 150.508C80.7756 151.536 81.9799 152.498 81.78 153.545C81.5681 154.669 79.8426 155.29 79.2072 156.282C78.6883 157.091 78.9335 158.015 78.6645 158.874C78.3385 159.912 77.2104 160.828 75.7324 161.254L75.5848 161.297C75.0419 160.831 74.5762 160.282 74.2044 159.671" stroke="#BAC99D" stroke-width="3.7" stroke-miterlimit="10"/>
<path d="M82.344 144.175C78.3527 148.247 76.4749 156.832 75.7442 161.258C75.6847 161.632 75.63 161.972 75.5848 162.284" stroke="#BAC99D" stroke-width="3.7" stroke-miterlimit="10"/>
<path d="M82.701 164.778L80.8636 175.046C80.8127 175.334 80.6621 175.595 80.4379 175.783C80.2137 175.971 79.9304 176.074 79.6379 176.074H70.0394C69.744 176.074 69.4582 175.969 69.2333 175.777C69.0084 175.586 68.8587 175.321 68.8113 175.029L67.112 164.778H82.701Z" stroke="#BAC99D" stroke-width="3.7" stroke-miterlimit="10"/>
<path d="M84.4455 163.634C84.4198 163.946 84.2777 164.237 84.0476 164.449C83.8177 164.661 83.5161 164.778 83.2032 164.778H66.636C66.3259 164.779 66.027 164.663 65.7975 164.455C65.5683 164.246 65.4251 163.959 65.396 163.65C65.3794 163.478 65.3991 163.303 65.4539 163.138C65.5086 162.973 65.5974 162.822 65.714 162.693C65.8308 162.565 65.9729 162.462 66.1319 162.391C66.2907 162.321 66.4623 162.284 66.636 162.284H83.1937C83.3669 162.283 83.5383 162.318 83.6973 162.387C83.8563 162.455 83.9991 162.556 84.1169 162.683C84.2347 162.81 84.3246 162.96 84.3813 163.124C84.4379 163.287 84.4598 163.461 84.4455 163.634Z" stroke="#BAC99D" stroke-width="3.7" stroke-miterlimit="10"/>
<path d="M70.2417 158.536C70.2136 158.458 70.1898 158.379 70.1703 158.298C69.9061 157.303 70.1417 156.225 69.6443 155.292C69.0326 154.142 67.3809 153.424 67.1715 152.119C66.9858 150.91 68.1425 149.792 67.9497 148.599C67.7403 147.255 65.9934 146.457 65.6626 145.141C65.465 144.327 65.6459 143.387 65.5745 142.542C65.4857 141.6 65.317 140.667 65.0699 139.753C67.0453 139.617 69.0445 140.376 70.2417 141.609C70.6006 141.965 70.8888 142.386 71.0913 142.849C71.7744 144.422 71.3674 146.26 72.4337 147.697C73.0144 148.476 73.9783 149.056 74.4733 149.87C74.639 150.136 74.7549 150.43 74.816 150.737C74.8184 150.759 74.8225 150.781 74.8279 150.803C74.8398 150.846 74.8446 150.887 74.8517 150.922C75.0302 152.127 74.5709 153.431 74.7185 154.671C74.8517 155.699 75.4087 156.729 75.0897 157.734C74.8663 158.409 74.5695 159.058 74.2044 159.669C73.9083 160.195 73.5442 160.68 73.1215 161.111C73.0739 161.099 73.031 161.08 72.9834 161.063C72.5527 157.922 71.7101 152.971 70.2417 148.542" stroke="#BAC99D" stroke-width="3.7" stroke-miterlimit="10"/>
<path d="M73.1405 162.281C73.0977 161.914 73.0429 161.514 72.9834 161.072C72.5527 157.93 71.7101 152.98 70.2417 148.551C69.3159 145.73 68.1354 143.11 66.6455 141.277" stroke="#BAC99D" stroke-width="3.7" stroke-miterlimit="10"/>
<path d="M72.4337 147.704C72.4337 147.704 72.6978 143.605 74.9089 142.358C77.1199 141.111 77.0723 148.099 77.0723 148.099" stroke="#BAC99D" stroke-width="3.7" stroke-miterlimit="10"/>
<path d="M74.847 150.934C74.5973 149.378 74.7137 147.786 75.1873 146.283" stroke="#BAC99D" stroke-width="3.7" stroke-miterlimit="10"/>
<path d="M108.148 74.2579C108.455 74.5906 108.632 75.0226 108.648 75.4753C108.663 75.9277 108.515 76.3708 108.231 76.7236L102.731 86.1841L102.538 88.0881L100.827 105.284L98.1091 132.594C98.0924 132.768 98.0568 132.942 98.0258 133.115C98.0091 133.253 97.9901 133.391 97.9663 133.529C97.9306 133.708 97.8878 133.877 97.8473 134.048C97.8069 134.22 97.7807 134.331 97.7378 134.47C97.695 134.608 97.6379 134.798 97.5784 134.96L97.4332 135.367C97.3689 135.529 97.3023 135.683 97.2356 135.843C97.169 136.002 97.1095 136.102 97.0452 136.233C96.981 136.364 96.8953 136.533 96.8072 136.676C96.7192 136.819 96.6621 136.928 96.5859 137.047C96.5097 137.166 96.4122 137.328 96.3146 137.466C96.217 137.604 96.148 137.704 96.0647 137.813C95.8838 138.051 95.7053 138.275 95.5078 138.489C95.4054 138.608 95.2983 138.727 95.1912 138.842C95.0841 138.956 94.9532 139.063 94.8437 139.172C94.7343 139.282 94.6272 139.375 94.5129 139.47C94.3987 139.565 94.2749 139.675 94.144 139.77C94.0131 139.865 93.906 139.955 93.7847 140.039C93.6633 140.122 93.5252 140.22 93.3943 140.31C93.2634 140.4 93.1373 140.469 93.0064 140.548C92.8755 140.627 92.7351 140.705 92.5994 140.786C92.4637 140.867 92.3233 140.924 92.1805 140.988C92.0377 141.053 91.9044 141.126 91.7617 141.186C91.6189 141.245 91.4546 141.307 91.2999 141.36C91.1452 141.412 91.0238 141.467 90.8858 141.51C90.624 141.593 90.3551 141.664 90.0837 141.726C89.929 141.762 89.7791 141.79 89.6244 141.814C89.4697 141.838 89.3245 141.874 89.1698 141.9H89.1936L91.3166 146.422L93.3039 146.441C92.6625 146.532 92.0134 146.56 91.3666 146.524L94.5129 153.233C95.0182 154.309 95.2436 155.495 95.1684 156.682C95.0929 157.868 94.7197 159.016 94.0826 160.019C93.4457 161.023 92.5656 161.849 91.5241 162.422C90.4826 162.995 89.3136 163.295 88.125 163.296H84.317C84.1697 163.296 84.0238 163.326 83.8876 163.382C83.7515 163.439 83.628 163.522 83.5242 163.627C83.4202 163.731 83.3381 163.855 83.2822 163.992C83.2262 164.128 83.1977 164.274 83.1984 164.422V164.979C84.4981 165.419 85.5993 166.307 86.3053 167.484C87.0114 168.661 87.2763 170.051 87.0531 171.405C86.8298 172.759 86.1327 173.99 85.0865 174.878C84.04 175.766 82.7122 176.253 81.3396 176.253C79.9671 176.253 78.6393 175.766 77.5928 174.878C76.5465 173.99 75.8494 172.759 75.6262 171.405C75.403 170.051 75.6678 168.661 76.374 167.484C77.0799 166.307 78.1811 165.419 79.4808 164.979V164.422C79.4811 164.274 79.4523 164.128 79.3961 163.991C79.3397 163.855 79.2571 163.73 79.1526 163.626C79.0484 163.521 78.9244 163.438 78.788 163.382C78.6514 163.325 78.5053 163.296 78.3575 163.296H36.3386C36.1908 163.296 36.0447 163.325 35.908 163.382C35.7717 163.438 35.6477 163.521 35.5434 163.626C35.4389 163.73 35.3564 163.855 35.3 163.991C35.2438 164.128 35.215 164.274 35.2152 164.422V164.979C36.5171 165.419 37.62 166.308 38.3273 167.487C39.0347 168.665 39.3005 170.056 39.077 171.412C38.8538 172.768 38.156 174.001 37.1083 174.89C36.0604 175.78 34.7309 176.268 33.3564 176.268C31.982 176.268 30.6525 175.78 29.6046 174.89C28.5569 174.001 27.8591 172.768 27.6359 171.412C27.4124 170.056 27.6782 168.665 28.3856 167.487C29.0929 166.308 30.1958 165.419 31.4977 164.979V164.422C31.4977 164.123 31.3791 163.837 31.168 163.626C30.9569 163.415 30.6704 163.296 30.3719 163.296H23.8412C23.5406 163.295 23.2472 163.205 22.9977 163.038C22.7481 162.871 22.5539 162.633 22.4394 162.355C22.3247 162.077 22.2949 161.772 22.3539 161.477C22.4127 161.182 22.5577 160.912 22.7702 160.699C22.9106 160.559 23.0775 160.447 23.2614 160.371C23.4452 160.295 23.6422 160.256 23.8412 160.257H86.7565C87.5507 160.256 88.3318 160.055 89.0277 159.673C89.7239 159.291 90.3125 158.739 90.7394 158.07C91.1662 157.4 91.4175 156.633 91.4701 155.841C91.5227 155.049 91.3751 154.256 91.0405 153.536L85.6308 141.862L31.412 137.478C31.3706 137.468 31.3282 137.462 31.2858 137.459C31.0478 137.435 30.8098 137.404 30.5718 137.364C30.4919 137.353 30.4124 137.339 30.3338 137.321C30.0649 137.273 29.8079 137.214 29.5484 137.147L29.3271 137.083C29.0891 137.009 28.8511 136.933 28.6131 136.845L28.4275 136.773C28.2109 136.69 27.9967 136.595 27.7872 136.493C27.6985 136.455 27.6118 136.413 27.5278 136.366C27.3374 136.271 27.147 136.169 26.9614 136.055C25.3992 135.137 24.104 133.826 23.2041 132.254C22.304 130.681 21.8303 128.901 21.8301 127.089V103.587C21.8306 101.08 22.735 98.6567 24.3772 96.7625C26.0196 94.8682 28.2899 93.6297 30.7718 93.2741L98.6851 83.5161L105.375 74.2508C105.554 74.062 105.769 73.9118 106.008 73.8095C106.246 73.7072 106.503 73.6548 106.763 73.6553C107.023 73.656 107.28 73.7098 107.518 73.8135C107.756 73.9171 107.97 74.0682 108.148 74.2579Z" fill="white"/>
<path d="M185.438 154.385C181.047 145.274 172.008 129.012 159.594 119.189L158.385 97.3671C159.301 97.3219 160.208 97.162 161.084 96.8911C162.079 96.7293 162.75 96.477 162.988 96.1057C163.171 95.7968 163.299 95.4586 163.366 95.1061C163.566 94.6715 163.66 94.1963 163.642 93.7186C163.642 93.4806 163.623 93.1974 163.619 92.9094C163.707 90.5103 163.473 87.0617 163.193 82.9681C162.905 77.0657 162.583 71.3061 162.576 71.2538V71.2419C162.576 71.1586 162.612 65.9868 162.852 60.2772C163.162 63.5164 164.504 65.5442 166.263 66.7889C168.167 68.3573 170.663 68.7833 172.805 68.7833C174.371 68.78 175.931 68.5744 177.444 68.1717C179.993 67.3768 182.09 66.1082 183.646 64.2994C185.074 62.9238 186.264 61.1697 186.59 59.0134C186.887 57.2691 186.793 55.4808 186.314 53.7774C185.894 51.7963 184.77 50.0344 183.151 48.8175C182.771 48.4957 182.351 48.2239 181.902 48.0083C181.147 47.5704 180.369 47.1468 179.631 46.6612C178.635 45.9648 177.768 45.1007 177.068 44.1075C176.607 43.2586 176.326 42.3234 176.242 41.361C176.317 39.753 176.295 38.142 176.175 36.5367C176.175 36.2011 176.14 35.8656 176.104 35.5371C176.014 34.3876 175.93 33.5927 175.93 33.5927C174.954 31.0777 173.285 28.8903 171.118 27.2833C170.985 27.1762 170.849 27.0738 170.716 26.9715C168.813 25.5825 166.604 24.6731 164.275 24.3202C164.061 24.2892 163.845 24.2654 163.635 24.2488C162.948 24.1367 162.254 24.0748 161.558 24.0631C160.668 23.6907 159.904 23.0714 159.356 22.2781C158.875 21.4028 158.534 20.4577 158.345 19.4769C158.076 17.8728 158.052 15.9473 157.919 13.7268C157.939 11.497 157.359 9.30262 156.238 7.37458C156.233 7.35959 156.225 7.34578 156.214 7.33412C155.736 6.53063 155.156 5.79235 154.489 5.13738C152.568 2.8621 149.893 1.43886 146.566 2.26948C146.535 2.26948 146.504 2.28852 146.468 2.30042C146.33 2.30042 146.195 2.30042 146.057 2.32422C146.053 2.32303 146.049 2.32303 146.045 2.32422C144.743 2.43251 143.481 2.82926 142.351 3.48566C141.935 3.72675 141.542 4.00545 141.178 4.31866C138.976 6.22266 137.712 9.16672 137.37 12.0822C137.353 12.2012 137.346 12.3202 137.341 12.4392C136.955 12.904 136.727 13.4788 136.689 14.0814C136.651 14.6674 136.784 15.2519 137.072 15.7638C137.36 16.2758 137.79 16.6935 138.31 16.966V17.1159C138.347 18.1453 138.572 19.1594 138.974 20.1076C139.65 21.7117 140.859 23.5372 142.905 23.8299C142.979 23.8299 143.051 23.8418 143.115 23.8537L144.612 26.5241L144.971 28.0734L145.804 31.6649L146.09 31.503C146.421 31.3174 146.749 31.1341 147.09 30.9532L147.306 31.3483C146.027 32.0795 144.806 32.9067 143.653 33.8235C140.709 36.0441 137.094 39.4379 134.549 44.0813C133.052 46.6803 131.993 49.5053 131.665 52.5041C131.663 52.5441 131.659 52.5836 131.653 52.6231C131.61 52.8921 131.574 53.161 131.546 53.4371V52.1257C131.493 52.1257 131.443 52.1019 131.391 52.0972V52.0734C131.208 52.0467 131.025 52.0103 130.846 51.9639L117.128 43.7957C116.512 43.2436 116.067 42.5267 115.845 41.7299C115.465 40.1936 114.605 38.8182 113.391 37.8029C112.354 36.9958 111.133 36.4594 109.838 36.2416C109.759 36.2226 109.676 36.2107 109.6 36.1988C109.652 36.084 109.679 35.9596 109.68 35.8334C109.68 35.7073 109.654 35.5826 109.602 35.4676C109.55 35.3524 109.475 35.2496 109.381 35.1661C109.286 35.0825 109.175 35.0199 109.055 34.9826L98.9159 31.7815C98.7044 31.7141 98.4752 31.7284 98.2736 31.8212C98.0717 31.9143 97.9123 32.0792 97.8259 32.2837L95.4911 37.8076C95.4435 37.9219 95.4202 38.0447 95.4228 38.1684C95.4254 38.292 95.4537 38.4138 95.5063 38.5259C95.5587 38.638 95.6339 38.7377 95.7272 38.8189C95.8205 38.9003 95.9297 38.9612 96.048 38.9976L96.3122 39.0809V39.1047L102.305 40.9635L102.415 40.9992C102.415 41.1182 102.415 41.2372 102.426 41.3562C102.443 41.9248 102.503 42.4912 102.605 43.0508C102.648 43.2888 102.7 43.5268 102.76 43.7648C102.795 43.8957 102.826 44.0218 102.874 44.148L102.893 44.2146C102.929 44.3265 102.964 44.4526 103.012 44.5597C103.024 44.6042 103.038 44.6478 103.055 44.6906C103.059 44.692 103.063 44.692 103.067 44.6906C103.215 45.0754 103.402 45.4446 103.624 45.7925C104.146 46.6089 104.91 47.2427 105.808 47.6061C106.658 47.9393 107.567 47.875 108.426 48.2154C109.088 48.4919 109.694 48.8853 110.216 49.3768L110.54 49.7291C110.366 49.9885 108.805 52.3994 109.931 53.1586L109.888 53.1777L111.025 53.8917L124.984 63.1094C125.122 63.2165 125.265 63.3189 125.403 63.4188L124.399 64.5255C121.628 65.5061 118.358 66.5771 115.766 67.3196C114.212 67.7147 112.644 68.0622 111.063 68.343C108.638 68.7619 106.165 68.781 103.754 69.1927C102 69.4807 100.515 71.1157 100.184 72.946C99.9084 74.4358 99.8418 76.04 101.489 76.8063C103.374 77.6822 104.314 74.9999 105.456 74.0479C107.217 72.558 108.969 74.3359 110.802 75.3474C110.968 76.3279 111.256 77.2728 111.478 78.2367C111.536 78.5785 111.668 78.9033 111.866 79.1887C112.201 79.6195 112.553 79.6647 112.865 79.5052L112.787 79.5719C113.386 79.4131 113.991 79.2546 114.6 79.0959C115.171 79.0071 115.734 78.871 116.283 78.6889C120.372 77.7178 124.729 76.8135 129.087 75.7187H129.104C129.309 75.6663 129.518 75.6116 129.72 75.564C129.788 75.5618 129.856 75.573 129.92 75.597C129.984 75.6211 130.042 75.6575 130.091 75.7041C130.141 75.751 130.181 75.807 130.208 75.8691C130.236 75.9312 130.251 75.9981 130.253 76.0661C130.23 76.3779 130.199 76.6945 130.17 77.0181C129.854 78.4128 129.332 82.178 128.742 85.2172C128.418 86.5643 128.083 87.821 127.759 88.9348C127.233 90.1248 126.719 91.2981 126.881 92.2668C126.899 92.6988 127.066 93.1112 127.354 93.4335C127.643 93.7555 128.034 93.9675 128.461 94.0328L129.213 94.147C129.73 94.2708 130.603 94.4207 131.698 94.5778C131.848 95.6416 132.01 96.7198 132.188 97.767L132.231 98.0312C132.357 98.7237 132.488 99.4306 132.619 100.13V100.149V100.173L132.726 100.747L132.84 101.366L131.972 109.062L131.712 111.412L125.105 169.672L118.156 171.521L112.948 172.911C112.758 172.951 112.578 173.026 112.415 173.132C112.173 173.283 111.975 173.494 111.837 173.744C111.7 173.994 111.63 174.275 111.632 174.56C111.633 174.839 111.705 175.114 111.842 175.357C111.917 175.501 112.011 175.634 112.123 175.752C112.353 175.98 112.644 176.136 112.96 176.202C113.078 176.23 113.199 176.244 113.32 176.243H133.616L135.282 169.676L145.231 130.311L145.752 130.787C145.752 130.787 145.752 130.806 145.771 130.811V130.823L161.027 145.327L161.208 145.486L161.446 145.724L164.623 148.739L164.861 148.961L164.956 149.056C176.82 160.518 177.244 162.015 176.98 162.172H176.83L171.356 173.53C171.185 173.886 171.145 174.291 171.241 174.675C171.337 175.059 171.564 175.397 171.882 175.631L172.265 175.912C172.61 176.161 173.035 176.271 173.457 176.219C173.879 176.168 174.266 175.96 174.54 175.636L188.437 159.392C188.437 159.392 187.407 158.443 185.438 154.385ZM113.284 79.1482C113.356 79.0609 113.422 78.9685 113.482 78.8722C113.484 78.9021 113.495 78.9309 113.512 78.9555L113.284 79.1482ZM125.063 64.2875C125.141 64.2518 125.217 64.2209 125.301 64.1899L126.122 63.8686L126.157 63.8853C125.805 64.0162 125.439 64.1542 125.063 64.2875ZM130.634 51.9115C129.924 51.689 129.269 51.3172 128.714 50.8215L127.954 50.3669L130.767 51.9353C130.72 51.9377 130.677 51.9377 130.634 51.9258V51.9115Z" fill="white"/>
<path d="M126.888 64.0282L126.474 63.8735C126.444 63.8578 126.416 63.8402 126.388 63.8212C124.225 62.4217 122.535 60.4463 121.09 58.3472C119.567 56.1314 114.341 53.8513 112.651 51.7522C111.568 50.4241 110.435 48.8962 108.776 48.2345C107.922 47.899 107.008 47.9632 106.158 47.6253C105.259 47.264 104.496 46.6295 103.976 45.8117C103.75 45.463 103.561 45.0922 103.412 44.705C103.393 44.6607 103.378 44.6155 103.367 44.5694C103.311 44.4349 103.265 44.2964 103.231 44.1552C103.186 44.0267 103.152 43.9029 103.119 43.772C103.054 43.5371 103.002 43.2987 102.964 43.058C102.876 42.5199 102.819 41.9771 102.795 41.4325V41.4063C102.776 40.8542 102.783 40.3115 102.81 39.7808V39.7665H102.783L100.353 38.9121C100.018 38.8012 99.7189 38.6017 99.4878 38.3349C99.2565 38.0681 99.1016 37.7435 99.0397 37.396C99.0066 37.2023 99.013 37.0038 99.0587 36.8129C99.1142 36.5604 99.2241 36.3231 99.3807 36.1177C99.5373 35.9121 99.7368 35.7434 99.9655 35.6229C100.177 35.5108 100.409 35.4437 100.647 35.4259C100.885 35.4078 101.125 35.4392 101.351 35.5182L106.242 37.2937L107.246 37.6555L107.272 37.6697C107.272 37.6697 107.272 36.1799 108.7 36.2108C110.021 36.2441 114.807 36.6321 116.226 41.8657C116.447 42.6613 116.892 43.3767 117.508 43.9268L129.071 50.8502C129.857 51.5625 130.843 52.0154 131.896 52.1473V53.6157C131.894 53.6169 131.893 53.6186 131.892 53.6205C131.891 53.6224 131.891 53.6243 131.891 53.6264C131.891 53.6283 131.891 53.6302 131.892 53.6322C131.893 53.6341 131.894 53.6357 131.896 53.6372V54.7058L132.814 61.1437L133.462 65.6443C132.617 65.713 131.767 65.6826 130.929 65.5538L130.38 65.3468H130.365L126.888 64.0282Z" fill="white"/>
<path d="M131.743 53.5394V53.5584C131.47 55.9694 131.198 58.7682 130.984 61.8646C129.442 62.5786 127.869 63.1974 126.322 63.8138C126.292 63.7981 126.263 63.7808 126.236 63.7615C125.185 63.071 124.22 62.2578 123.361 61.3386L110.238 53.1943C111.05 52.7835 111.773 52.2175 112.368 51.5283L112.408 51.4878C114.881 48.8317 117.025 44.3478 117.292 43.7861L117.349 43.8456L128.911 50.7691C129.697 51.4809 130.684 51.9331 131.736 52.0638L131.743 53.5394Z" fill="#2E2E2E"/>
<path d="M108.464 39.8785L108.2 40.5925L107.948 41.2851L107.81 41.6778L107.791 41.7373L107.765 41.8087C107.703 41.9872 107.572 42.1338 107.402 42.2164C107.232 42.2987 107.037 42.3106 106.858 42.249L102.674 40.9638H102.655L96.643 39.1169L98.2043 35.4255L98.8921 33.8C98.98 33.5955 99.1406 33.4311 99.3429 33.3387C99.5455 33.2462 99.7751 33.2326 99.9869 33.3002L108.272 35.9182C108.003 35.857 107.73 35.818 107.455 35.8016C107.26 35.7899 107.065 35.8218 106.883 35.8946C106.702 35.9675 106.539 36.0796 106.406 36.2228C106.28 36.3659 106.189 36.5365 106.141 36.7207C106.093 36.9049 106.088 37.098 106.127 37.2843C106.251 37.7627 106.497 38.2006 106.841 38.5552C106.875 38.5933 106.908 38.6266 106.946 38.6647C107.254 39.006 107.61 39.3002 108.003 39.5382C108.003 39.5382 108.015 39.5382 108.029 39.5572C108.167 39.6743 108.312 39.7816 108.464 39.8785Z" fill="#577D11"/>
<path d="M102.764 40.9639C102.764 41.0924 102.764 41.2304 102.779 41.3589C102.796 41.9285 102.856 42.4956 102.96 43.0559C102.998 43.2965 103.049 43.535 103.114 43.7699C103.148 43.8984 103.179 44.0222 103.224 44.1507C103.269 44.2792 103.317 44.4363 103.374 44.5791C103.392 44.6319 103.413 44.6836 103.438 44.7338" stroke="black" stroke-width="3.7" stroke-miterlimit="10"/>
<path d="M110.369 40.3573C110.131 40.3192 109.893 40.274 109.655 40.2145C109.417 40.155 109.24 40.0907 109.04 40.0145C108.722 39.8903 108.416 39.7359 108.127 39.5528C108.127 39.5528 108.108 39.5528 108.1 39.5338C107.666 39.2682 107.275 38.9364 106.941 38.5508C106.597 38.1965 106.351 37.7583 106.227 37.2799C106.184 37.0936 106.186 36.8996 106.235 36.7144C106.283 36.5295 106.376 36.3591 106.506 36.2185C106.639 36.0752 106.802 35.9633 106.983 35.8905C107.165 35.8177 107.36 35.7858 107.555 35.7972C107.922 35.826 108.285 35.8826 108.643 35.9662C109.155 36.0566 109.666 36.1399 110.173 36.2446C111.469 36.4655 112.69 37.0015 113.729 37.8059C114.941 38.8222 115.8 40.1961 116.183 41.7305C116.402 42.5269 116.844 43.2437 117.459 43.7964L131.888 52.3882" stroke="black" stroke-width="3.7" stroke-miterlimit="10"/>
<path d="M102.781 41.3555C102.781 41.3555 103.243 43.952 106.853 43.8806C107.133 43.8704 107.403 43.7747 107.627 43.6067C107.851 43.4384 108.018 43.2057 108.105 42.9398C108.193 42.6737 108.197 42.3874 108.117 42.1192C108.037 41.8507 107.877 41.6135 107.658 41.4388L107.61 41.4031" stroke="black" stroke-width="3.7" stroke-miterlimit="10"/>
<path d="M103.362 44.5575C103.362 44.5575 105.13 46.3972 106.894 45.6023C108.453 44.8883 107.386 43.4912 107.386 43.4912" stroke="black" stroke-width="3.7" stroke-miterlimit="10"/>
<path d="M108.186 41.3203L108.058 41.2822" stroke="black" stroke-width="3.7" stroke-miterlimit="10"/>
<path d="M89.5173 141.894C88.7669 142.002 88.0067 142.023 87.2516 141.958L86.0616 141.863L89.5173 141.894Z" fill="#EEF2E7"/>
<path d="M102.893 88.0996L98.4542 132.606C98.2215 134.931 97.2133 137.111 95.592 138.795C93.9708 140.478 91.8302 141.568 89.5149 141.888C88.7645 141.995 88.0044 142.017 87.2492 141.952L86.0592 141.857L31.7547 137.47C30.1811 137.348 28.6567 136.865 27.2994 136.059C26.643 134.679 26.3038 133.17 26.3069 131.642V130.606L76.1988 134.652L77.3888 134.75C78.144 134.812 78.904 134.791 79.6546 134.686C81.9694 134.364 84.1093 133.275 85.7303 131.591C87.3515 129.908 88.3599 127.729 88.5939 125.404L92.1639 89.668L102.893 88.0996Z" fill="#577D11"/>
<path d="M92.1591 89.6416L88.5891 125.377C88.3551 127.703 87.3467 129.882 85.7255 131.565C84.1045 133.248 81.9646 134.338 79.6498 134.659C78.8992 134.765 78.1395 134.786 77.3841 134.724L76.1941 134.626L26.3021 130.58V108.134C26.3033 105.627 27.2075 103.204 28.849 101.309C30.4907 99.4136 32.76 98.1732 35.2414 97.8145L92.1591 89.6416Z" fill="#EEF2E7"/>
<path d="M93.6585 146.443C92.9074 146.55 92.1465 146.572 91.3904 146.507L90.2004 146.412L93.6585 146.443Z" fill="#EEF2E7"/>
<path d="M89.5459 141.895L94.8675 153.238C95.3716 154.314 95.5963 155.5 95.5204 156.685C95.4445 157.871 95.0708 159.018 94.4337 160.021C93.7963 161.024 92.9164 161.85 91.8754 162.423C90.8342 162.995 89.6654 163.295 88.4772 163.296H84.6693C84.5219 163.296 84.3758 163.325 84.2397 163.381C84.1033 163.437 83.9795 163.519 83.8751 163.623C83.7708 163.727 83.688 163.851 83.6316 163.987C83.5749 164.124 83.5459 164.27 83.5459 164.417V169.948C83.5459 170.441 83.35 170.914 83.0016 171.263C82.6529 171.611 82.18 171.807 81.6871 171.807C81.1942 171.807 80.7213 171.611 80.3729 171.263C80.0242 170.914 79.8283 170.441 79.8283 169.948V164.415C79.8286 164.267 79.7998 164.121 79.7434 163.985C79.687 163.848 79.6044 163.725 79.4999 163.62C79.3954 163.516 79.2714 163.434 79.135 163.378C78.9987 163.321 78.8525 163.293 78.705 163.294H36.6885C36.5411 163.293 36.3952 163.322 36.2591 163.378C36.123 163.434 35.9992 163.517 35.8952 163.621C35.791 163.725 35.7084 163.849 35.6522 163.985C35.596 164.121 35.5672 164.267 35.5675 164.415V169.946C35.5503 170.427 35.3468 170.884 34.9998 171.219C34.6528 171.553 34.1897 171.74 33.7075 171.74C33.2253 171.74 32.7622 171.553 32.4152 171.219C32.0684 170.884 31.8647 170.427 31.8475 169.946V164.415C31.8478 164.267 31.819 164.121 31.7628 163.985C31.7066 163.849 31.6241 163.725 31.5198 163.621C31.4158 163.517 31.292 163.434 31.1559 163.378C31.0198 163.322 30.8739 163.293 30.7266 163.294H24.1958C23.8027 163.278 23.4307 163.111 23.1579 162.827C22.8852 162.543 22.7328 162.165 22.7328 161.772C22.7328 161.378 22.8852 161 23.1579 160.716C23.4307 160.432 23.8027 160.265 24.1958 160.25H87.104C87.897 160.249 88.6772 160.048 89.3724 159.666C90.0678 159.285 90.6559 158.734 91.0824 158.066C91.5091 157.397 91.7609 156.632 91.8142 155.841C91.8676 155.05 91.7209 154.258 91.388 153.538L85.9783 141.876" fill="#2E2E2E"/>
<path d="M87.2492 141.959L31.7547 137.473C29.1446 137.262 26.7096 136.077 24.9341 134.152C23.1586 132.227 22.1726 129.705 22.1728 127.086V103.586C22.1735 101.079 23.0777 98.6568 24.7194 96.7623C26.3614 94.8678 28.6307 93.6285 31.1121 93.2713L99.023 83.5133L105.718 74.2432C105.897 74.0538 106.114 73.9031 106.353 73.8005C106.593 73.6979 106.852 73.6461 107.113 73.6475C107.373 73.6492 107.631 73.7044 107.87 73.8096C108.109 73.915 108.323 74.0683 108.5 74.2599C108.805 74.5938 108.981 75.0253 108.996 75.477C109.012 75.9287 108.866 76.3714 108.586 76.7255L103.079 86.1956L98.459 132.606C98.1879 135.322 96.8617 137.824 94.7654 139.573C92.6691 141.322 89.9704 142.179 87.2492 141.959Z" stroke="black" stroke-width="3.7" stroke-miterlimit="10"/>
<path d="M87.492 170.452C87.4941 171.517 87.2023 172.563 86.6485 173.474C86.0949 174.384 85.3007 175.124 84.3534 175.613C83.4062 176.101 82.3428 176.318 81.2799 176.241C80.217 176.164 79.196 175.796 78.3292 175.176C77.4624 174.556 76.7834 173.709 76.3669 172.728C75.9504 171.747 75.8126 170.67 75.9685 169.616C76.1244 168.562 76.5682 167.571 77.2508 166.753C77.9334 165.934 78.8288 165.32 79.8379 164.978V169.947C79.8379 170.44 80.0337 170.913 80.3822 171.262C80.7308 171.61 81.2038 171.806 81.6967 171.806C82.1896 171.806 82.6625 171.61 83.0109 171.262C83.3596 170.913 83.5554 170.44 83.5554 169.947V164.976C84.7028 165.361 85.7001 166.097 86.4064 167.079C87.1128 168.062 87.4924 169.242 87.492 170.452Z" stroke="black" stroke-width="3.7" stroke-miterlimit="10"/>
<path d="M39.504 170.452C39.5059 171.517 39.2141 172.563 38.6603 173.473C38.1065 174.383 37.3125 175.122 36.3653 175.61C35.4183 176.098 34.3549 176.315 33.2924 176.238C32.2298 176.16 31.2092 175.791 30.3429 175.171C29.4766 174.551 28.7983 173.704 28.3823 172.723C27.9665 171.742 27.8292 170.666 27.9858 169.612C28.1424 168.558 28.5865 167.568 29.2695 166.75C29.9526 165.933 30.8479 165.319 31.8571 164.978V169.947C31.8578 170.441 32.0541 170.913 32.403 171.262C32.7519 171.61 33.2251 171.806 33.7182 171.806C34.2111 171.806 34.684 171.61 35.0327 171.262C35.3811 170.913 35.577 170.44 35.577 169.947V164.976C36.7232 165.361 37.719 166.098 38.4237 167.08C39.1284 168.063 39.5064 169.242 39.504 170.452Z" stroke="black" stroke-width="3.7" stroke-miterlimit="10"/>
<path d="M89.5459 141.895L94.8675 153.238C95.3716 154.314 95.5963 155.5 95.5204 156.685C95.4445 157.871 95.0708 159.018 94.4337 160.021C93.7963 161.024 92.9164 161.85 91.8754 162.423C90.8342 162.995 89.6653 163.295 88.4773 163.296H84.6693C84.5219 163.296 84.3758 163.325 84.2397 163.381C84.1033 163.437 83.9795 163.519 83.8751 163.623C83.7708 163.727 83.688 163.851 83.6316 163.987C83.5749 164.124 83.5459 164.27 83.5459 164.417V169.948C83.5459 170.441 83.35 170.914 83.0016 171.263C82.6529 171.611 82.18 171.807 81.6871 171.807C81.1942 171.807 80.7213 171.611 80.3729 171.263C80.0242 170.914 79.8283 170.441 79.8283 169.948V164.415C79.8286 164.267 79.7998 164.121 79.7434 163.985C79.687 163.848 79.6044 163.725 79.4999 163.62C79.3954 163.516 79.2714 163.434 79.135 163.378C78.9987 163.321 78.8525 163.293 78.705 163.294H36.6885C36.5411 163.293 36.3952 163.322 36.2591 163.378C36.123 163.434 35.9992 163.517 35.8952 163.621C35.791 163.725 35.7084 163.849 35.6522 163.985C35.596 164.121 35.5672 164.267 35.5675 164.415V169.946C35.5503 170.427 35.3468 170.884 34.9998 171.219C34.6528 171.553 34.1897 171.74 33.7075 171.74C33.2253 171.74 32.7622 171.553 32.4152 171.219C32.0684 170.884 31.8647 170.427 31.8475 169.946V164.415C31.8478 164.267 31.819 164.121 31.7628 163.985C31.7066 163.849 31.6241 163.725 31.5198 163.621C31.4158 163.517 31.292 163.434 31.1559 163.378C31.0198 163.322 30.8739 163.293 30.7266 163.294H24.1958C23.8027 163.278 23.4307 163.111 23.1579 162.827C22.8852 162.543 22.7328 162.165 22.7328 161.772C22.7328 161.378 22.8852 161 23.1579 160.716C23.4307 160.432 23.8027 160.265 24.1958 160.25H87.104C87.897 160.249 88.6772 160.048 89.3724 159.666C90.0678 159.285 90.6559 158.734 91.0824 158.066C91.5091 157.397 91.7609 156.632 91.8142 155.841C91.8676 155.05 91.7209 154.258 91.388 153.538L85.9783 141.876" stroke="black" stroke-width="3.7" stroke-miterlimit="10"/>
<path d="M108.6 39.8124L108.048 41.2832L107.898 41.6783L107.853 41.8092C107.791 41.9842 107.663 42.1281 107.496 42.2105C107.329 42.2926 107.137 42.3066 106.96 42.2495L102.764 40.9643L96.386 39.0032C96.2679 38.9665 96.1587 38.9056 96.0654 38.8245C95.9721 38.7433 95.8967 38.6433 95.8443 38.5312C95.7919 38.4194 95.7634 38.2975 95.7608 38.1738C95.7581 38.0503 95.7815 37.9272 95.8291 37.8132L98.1615 32.2868C98.2495 32.0826 98.4104 31.9184 98.6127 31.8261C98.815 31.7337 99.0442 31.7199 99.2563 31.787L109.393 34.9881C109.514 35.0248 109.626 35.0869 109.721 35.17C109.816 35.253 109.893 35.3556 109.946 35.4703C109.999 35.5853 110.026 35.7102 110.027 35.8366C110.029 35.9632 110.003 36.0884 109.952 36.2043" stroke="black" stroke-width="3.7" stroke-miterlimit="10"/>
<path d="M106.501 36.8246L97.4784 33.9043" stroke="black" stroke-width="3.7" stroke-miterlimit="10"/>
<path d="M117.468 43.7949C117.468 43.7949 113.998 51.3419 110.635 53.134C110.611 53.1464 110.59 53.1647 110.575 53.1878C110.56 53.2107 110.551 53.2371 110.549 53.2645C110.548 53.2918 110.554 53.319 110.566 53.3435C110.579 53.3678 110.598 53.3885 110.621 53.403L126.388 63.8107" stroke="black" stroke-width="3.7" stroke-miterlimit="10"/>
<path d="M110.904 49.7227C110.904 49.7227 108.957 52.5596 110.395 53.2546" stroke="black" stroke-width="3.7" stroke-miterlimit="10"/>
<path d="M111.982 68.2389C111.982 68.2389 111.185 68.2746 112.784 70.288C114.384 72.3015 114.926 76.1333 113.839 78.8727C113.839 78.8727 113.791 79.5867 116.637 78.6966C119.484 77.8065 129.468 75.724 129.468 75.724C129.468 75.724 131.027 74.9029 130.544 76.983C130.061 79.0631 129.116 86.7148 128.128 88.9211C127.14 91.1273 126.179 93.3145 129.577 94.1428C132.976 94.971 151.516 96.7132 151.516 96.7132C151.516 96.7132 164.13 99.5097 163.997 93.7168C163.864 87.9238 162.938 71.2472 162.938 71.2472C162.938 71.2472 163.014 58.3738 163.864 50.7625C163.864 50.7625 166.082 31.425 159.487 29.6376C152.892 27.8503 150.652 29.7519 148.979 30.6539C147.306 31.5559 132.557 39.2647 131.753 55.1679C131.753 55.1679 131.698 61.3131 130.453 62.2294C129.209 63.1457 114.643 68.1841 111.982 68.2389Z" fill="#2E2E2E"/>
<path d="M135.625 169.672L133.959 176.238H113.674C113.229 176.235 112.803 176.06 112.484 175.748C112.272 175.534 112.12 175.267 112.045 174.975C111.97 174.683 111.975 174.376 112.059 174.087C112.143 173.797 112.303 173.535 112.523 173.329C112.743 173.122 113.014 172.977 113.308 172.911L125.465 169.672C125.465 169.672 132.502 172.145 135.625 169.672Z" fill="#2E2E2E"/>
<path d="M159.197 97.0763C159.042 97.0763 158.88 97.0905 158.721 97.0905C158.086 101.189 157.38 105.274 156.602 109.345C147.516 107.31 134.961 110.918 134.961 110.918L135.225 112.346C133.155 112.458 132.519 111.694 132.519 111.694L132.062 111.411L133.202 101.351L132.983 100.161V100.123C132.848 99.4229 132.719 98.7161 132.595 98.0164L132.55 97.7593C132.369 96.6764 132.2 95.5888 132.05 94.5059L132.2 94.5273C132.253 94.5273 132.303 94.5463 132.362 94.5511L132.491 94.5725C132.602 94.5844 132.712 94.6034 132.821 94.6177C133.059 94.6487 133.366 94.6939 133.709 94.7462C133.845 94.7462 133.988 94.7796 134.138 94.8057C139.297 95.5221 152.74 97.2714 159.197 97.0763Z" fill="#577D11"/>
<path d="M145.607 130.183L145.576 130.307L135.625 169.672L133.959 176.238H113.674C113.229 176.235 112.803 176.06 112.484 175.748C112.272 175.534 112.12 175.267 112.045 174.975C111.97 174.682 111.975 174.376 112.059 174.086C112.143 173.796 112.304 173.534 112.523 173.327C112.743 173.12 113.014 172.976 113.308 172.909L125.465 169.672L132.062 111.412L133.202 101.352" stroke="black" stroke-width="3.7" stroke-miterlimit="10"/>
<path d="M114.36 75.8954C113.646 75.9287 113.246 75.9359 113.246 75.9359C112.532 75.9858 111.839 75.7145 111.154 75.3456C109.321 74.3341 107.565 72.561 105.804 74.0509C104.664 75.0029 103.724 77.6828 101.839 76.8093C100.194 76.0453 100.258 74.4293 100.53 72.949C100.868 71.1164 102.35 69.4837 104.1 69.1909C106.508 68.784 108.983 68.7649 111.406 68.3437C116.286 67.4512 121.063 66.062 125.66 64.1977C130.765 62.1628 136.334 60.066 140.104 55.8867C144.581 50.9387 147.425 44.4627 148.979 38.0225" stroke="black" stroke-width="3.7" stroke-miterlimit="10"/>
<path d="M139.566 11.4131C139.566 11.4131 140.011 4.00415 146.928 2.26913C153.844 0.534109 157.971 8.56899 158.283 13.7265C158.594 18.8839 158.283 22.442 161.917 24.0652C161.917 24.0652 172.42 23.9366 176.29 33.5852C176.29 33.5852 176.813 38.3142 176.599 41.3582C176.385 44.4023 180.183 47.0702 182.252 48.008C184.32 48.9457 187.918 52.768 186.94 59.0107C185.962 65.2534 177.796 68.1642 177.796 68.1642C177.796 68.1642 170.818 70.23 166.61 66.7814C162.143 63.1234 163.407 56.4332 163.407 56.4332C163.407 56.4332 165.818 34.6752 161.429 31.1005C159.013 29.1322 157.916 29.3107 156.21 28.273C154.413 27.1806 153.77 26.845 153.168 26.0763C151.997 24.5697 149.922 22.2944 151.424 16.9275C152.925 11.5606 151.424 14.2667 149.996 13.5099C149.996 13.5099 148.244 10.8062 145.6 12.7173C142.955 14.6285 143.6 9.96605 143.6 9.96605L142.439 11.5273C142.439 11.5273 140.623 11.8915 139.566 11.4131Z" fill="#577D11"/>
<path d="M137.938 13.9743C137.874 10.5161 139.164 6.63197 141.851 4.32813C142.216 4.01397 142.608 3.73289 143.022 3.48799C145.926 1.77201 149.96 1.92671 152.849 3.59509C154.386 4.50782 155.668 5.79278 156.576 7.33169L156.6 7.37453C157.72 9.30304 158.301 11.4969 158.283 13.7267C158.297 16.6256 158.314 20.5597 160.175 22.9659C161.351 24.4891 162.914 24.0607 164.635 24.3201C166.965 24.6702 169.175 25.5808 171.075 26.9738C173.641 28.8612 175.778 31.6767 176.368 34.8564C176.937 37.9171 175.826 41.3681 177.475 44.1979C178.684 46.2661 180.983 47.211 182.93 48.4176C186.838 50.869 187.642 55.6195 186.405 59.7988C185.115 64.1566 182.083 66.8341 177.796 68.1692C177.796 68.1692 163.312 71.7392 163.133 59.0443" stroke="black" stroke-width="3.7" stroke-miterlimit="10"/>
<path d="M143.398 9.74805C143.248 10.7667 142.629 11.7068 141.527 11.9876C140.285 12.3042 139.623 13.5132 139.276 14.7294C138.779 16.5137 138.907 18.4141 139.64 20.1153C140.318 21.7147 141.53 23.5425 143.577 23.8353C147.323 24.3684 149.186 22.7905 149.186 22.7905" stroke="black" stroke-width="3.7" stroke-miterlimit="10"/>
<path d="M146.518 15.1904C146.875 15.1904 147.163 14.9017 147.163 14.5454C147.163 14.1891 146.875 13.9004 146.518 13.9004C146.162 13.9004 145.873 14.1891 145.873 14.5454C145.873 14.9017 146.162 15.1904 146.518 15.1904Z" fill="black"/>
<path d="M140.861 14.7675C141.217 14.7675 141.506 14.4786 141.506 14.1225C141.506 13.7662 141.217 13.4775 140.861 13.4775C140.505 13.4775 140.216 13.7662 140.216 14.1225C140.216 14.4786 140.505 14.7675 140.861 14.7675Z" fill="black"/>
<path d="M143.398 9.74805C143.256 10.3602 143.278 10.9987 143.462 11.5997C143.491 11.697 143.527 11.7918 143.572 11.8829C144.019 12.9325 145.059 13.7702 146.904 13.6655C150.909 13.4442 152.337 13.1895 152.011 15.0293C151.876 15.6802 151.682 16.3176 151.431 16.9333C150.99 18.1018 150.683 20.1082 151.135 22.293C151.657 24.8468 152.894 27.4552 157.066 28.907" stroke="black" stroke-width="3.7" stroke-miterlimit="10"/>
<path d="M143.748 14.7031C143.748 14.7031 143.072 17.1736 143.141 17.5377C143.21 17.9018 144.074 17.6186 144.074 17.6186" stroke="black" stroke-width="3.7" stroke-miterlimit="10"/>
<path d="M144.224 19.8818C145.516 20.5792 147.016 20.1389 147.601 18.9727" stroke="black" stroke-width="3.7" stroke-miterlimit="10"/>
<path d="M149.685 17.11C150.797 15.9323 150.72 14.0545 149.514 12.9159C148.308 11.7771 146.429 11.8087 145.317 12.9861C144.205 14.1638 144.282 16.0416 145.488 17.1802C146.695 18.319 148.574 18.2873 149.685 17.11Z" stroke="black" stroke-width="3.7" stroke-miterlimit="10"/>
<path d="M142.181 16.4204C143.293 15.2428 143.217 13.3652 142.01 12.2264C140.804 11.0878 138.925 11.1192 137.813 12.2968C136.702 13.4744 136.778 15.352 137.985 16.4908C139.191 17.6294 141.07 17.598 142.181 16.4204Z" stroke="black" stroke-width="3.7" stroke-miterlimit="10"/>
<path d="M139.94 12.3036C140.004 12.3 140.069 12.3 140.133 12.3036C140.682 12.3543 141.19 12.6171 141.549 13.0362C141.908 13.4551 142.09 13.9972 142.056 14.548C142.025 15.0535 141.802 15.5278 141.432 15.8734C141.061 16.2187 140.573 16.4089 140.066 16.4044C140.002 16.4044 139.938 16.4044 139.873 16.4044C139.325 16.3522 138.817 16.089 138.459 15.6704C138.1 15.2517 137.918 14.7103 137.95 14.16C137.981 13.6545 138.204 13.1799 138.575 12.8346C138.945 12.489 139.434 12.2989 139.94 12.3036ZM139.94 11.8633C139.323 11.86 138.727 12.093 138.275 12.514C137.824 12.935 137.55 13.5129 137.51 14.1291C137.469 14.7943 137.689 15.4493 138.123 15.9555C138.556 16.4619 139.169 16.7797 139.833 16.8423C139.911 16.8423 139.99 16.8542 140.071 16.8542C140.689 16.8566 141.284 16.6233 141.736 16.2018C142.187 15.7803 142.461 15.2025 142.501 14.586C142.541 13.9208 142.321 13.2661 141.888 12.7599C141.454 12.2539 140.841 11.9357 140.178 11.8728C140.099 11.8728 140.021 11.8728 139.94 11.8728V11.8633Z" fill="white"/>
<path d="M144.536 14.7751L142.96 14.6299" stroke="black" stroke-width="3.7" stroke-miterlimit="10"/>
<path d="M147.435 12.9296H147.632C148.198 12.9829 148.721 13.2538 149.091 13.6855C149.461 14.117 149.649 14.6756 149.615 15.243C149.581 15.7623 149.349 16.249 148.968 16.6029C148.586 16.9571 148.084 17.1517 147.563 17.147C147.496 17.147 147.432 17.147 147.366 17.147C146.8 17.0937 146.276 16.8226 145.907 16.3909C145.537 15.9594 145.349 15.401 145.383 14.8336C145.417 14.3141 145.648 13.8269 146.029 13.4727C146.411 13.1186 146.914 12.9241 147.435 12.9296ZM147.435 12.4893C146.801 12.4848 146.189 12.723 145.725 13.1548C145.261 13.5865 144.979 14.1796 144.938 14.8122C144.897 15.4936 145.122 16.1645 145.566 16.6834C146.01 17.202 146.638 17.5278 147.318 17.592C147.399 17.592 147.477 17.6039 147.556 17.6039C148.189 17.6063 148.799 17.3671 149.262 16.9349C149.725 16.503 150.005 15.9103 150.045 15.2787C150.09 14.5961 149.866 13.9233 149.422 13.4037C148.977 12.8842 148.347 12.5595 147.665 12.4988C147.585 12.4988 147.506 12.4988 147.427 12.4988L147.435 12.4893Z" fill="white"/>
<path d="M141.872 16.1287C142.826 15.1184 142.759 13.5071 141.724 12.5301C140.689 11.5529 139.077 11.5798 138.123 12.5901C137.169 13.6004 137.235 15.2115 138.27 16.1887C139.306 17.1659 140.918 17.139 141.872 16.1287Z" fill="#577D11"/>
<path d="M149.386 16.8246C150.345 15.8096 150.279 14.1909 149.239 13.2092C148.199 12.2274 146.579 12.2546 145.621 13.2696C144.662 14.2847 144.729 15.9033 145.768 16.8851C146.808 17.8668 148.428 17.8397 149.386 16.8246Z" fill="#577D11"/>
<path d="M146.518 31.8696L145.642 28.0806L144.69 23.9941" stroke="black" stroke-width="3.7" stroke-miterlimit="10"/>
<path d="M188.794 159.402L174.9 175.646C174.625 175.969 174.237 176.177 173.816 176.228C173.394 176.279 172.969 176.168 172.625 175.919L172.244 175.641C171.924 175.408 171.696 175.071 171.599 174.687C171.502 174.304 171.543 173.899 171.713 173.542L177.173 162.18C177.173 162.18 185.86 162.429 185.788 154.378C187.757 158.445 188.794 159.402 188.794 159.402Z" fill="#2E2E2E"/>
<path d="M165.313 149.065L165.216 148.967L161.562 145.495L161.386 145.333L146.126 130.815V130.801L146.104 130.782L145.588 130.306L140.949 125.896C138.409 123.477 136.699 120.316 136.065 116.866L135.225 112.363L134.959 110.935L133.202 101.375L132.983 100.185V100.147C132.848 99.4468 132.719 98.74 132.595 98.0402L132.55 97.7832" stroke="black" stroke-width="3.7" stroke-miterlimit="10"/>
<path d="M132.043 94.5137C132.193 95.5966 132.362 96.6842 132.543 97.7671L132.588 98.0242C132.712 98.7239 132.84 99.4307 132.976 100.13V100.169" stroke="black" stroke-width="3.7" stroke-linejoin="round"/>
<path d="M146.09 130.792L146.109 130.811L146.123 130.825" stroke="black" stroke-width="3.7" stroke-linejoin="round"/>
<path d="M161.384 145.333L161.56 145.495C162.88 146.733 164.098 147.89 165.213 148.967L165.308 149.065C179.943 163.205 177.17 162.179 177.17 162.179L171.708 173.541C171.539 173.898 171.499 174.303 171.596 174.687C171.694 175.07 171.922 175.407 172.241 175.64L172.622 175.918C172.966 176.168 173.392 176.278 173.813 176.227C174.235 176.176 174.622 175.968 174.897 175.645L188.79 159.401C188.79 159.401 187.754 158.449 185.786 154.377C181.057 144.576 170.959 126.491 157.057 117.066C156.54 116.719 156.137 116.226 155.899 115.65C155.661 115.074 155.6 114.44 155.722 113.829C155.988 112.539 156.241 111.249 156.488 109.954C156.526 109.755 156.564 109.552 156.598 109.352C157.374 105.278 158.08 101.193 158.716 97.0977" stroke="black" stroke-width="3.7" stroke-linejoin="round"/>
<path d="M131.134 61.9243C131.348 58.8303 131.61 56.029 131.893 53.5943C131.931 53.2254 131.976 52.8612 132.015 52.5042C132.595 47.1992 135.473 42.4107 139.012 38.5289C142.51 34.6923 146.963 30.9629 152.016 29.4516C153.644 28.9387 155.357 28.7535 157.057 28.9065C158.224 29.047 159.339 29.4687 160.306 30.1358C161.273 30.8029 162.064 31.6954 162.609 32.736C163.287 34.0664 163.719 35.5077 163.885 36.9914C163.885 37.0104 163.885 37.0295 163.885 37.0509C164.183 39.4309 164.014 41.9275 164.04 44.2909C164.085 49.2222 163.664 54.1441 163.119 59.0469" stroke="black" stroke-width="3.7" stroke-linejoin="round"/>
<path d="M130.71 74.2571V74.25" stroke="black" stroke-width="3.7" stroke-linejoin="round"/>
<path d="M111.413 68.334C113.667 70.971 115.071 74.8195 114.105 78.261C113.867 79.0773 113.006 80.184 112.223 79.1773C112.025 78.8924 111.892 78.5673 111.835 78.2253C111.613 77.2566 111.323 76.3046 111.154 75.3217" stroke="black" stroke-width="3.7" stroke-miterlimit="10"/>
<path d="M113.144 79.5668C131.553 74.7021 157.621 73.0551 163.235 47.3892C163.97 43.9717 164.19 40.4636 163.888 36.9814" stroke="black" stroke-width="3.7" stroke-miterlimit="10"/>
<path d="M130.658 75.4172C130.294 81.5576 128.371 88.2692 127.309 91.6012C127.226 91.8597 127.2 92.1329 127.233 92.4023C127.266 92.6717 127.357 92.9307 127.5 93.1615C127.643 93.3924 127.834 93.5895 128.06 93.7392C128.287 93.8889 128.543 93.9876 128.811 94.0288C129.68 94.1645 130.779 94.3263 132.043 94.5048L132.193 94.5262C132.245 94.5262 132.295 94.5453 132.355 94.55L132.483 94.5715C132.595 94.5834 132.705 94.6024 132.814 94.6167C133.1 94.6619 133.397 94.7 133.702 94.7452C133.838 94.7452 133.98 94.7785 134.13 94.8047C141.508 95.8519 152.499 97.2204 158.718 97.0847C158.88 97.0847 159.042 97.0847 159.194 97.0705L159.67 97.0514L160.132 97.0252C161.831 96.9015 162.988 96.6111 163.319 96.0994C165.461 92.8602 161.486 74.2439 163.39 56.4248" stroke="black" stroke-width="3.7" stroke-miterlimit="10"/>
<path d="M180.169 176.24H5.89841" stroke="black" stroke-width="3.7" stroke-linejoin="round"/>
<path d="M13.9737 121.67C13.9737 121.67 -9.62396 149.347 13.9737 175.953" stroke="#BAC99D" stroke-width="3.7" stroke-miterlimit="10"/>
</svg>
