<svg width="25" height="24" viewBox="0 0 25 24" fill="none" xmlns="http://www.w3.org/2000/svg">
<path d="M14.82 19.0698C14.82 19.6798 14.42 20.4798 13.91 20.7898L12.5 21.6998C11.19 22.5098 9.37 21.5998 9.37 19.9798V14.6298C9.37 13.9198 8.97 13.0098 8.56 12.5098L4.71997 8.46976C4.20997 7.95976 3.81 7.05977 3.81 6.44977V4.12976C3.81 2.91976 4.72002 2.00977 5.83002 2.00977H19.17C20.28 2.00977 21.19 2.91975 21.19 4.02975V6.24976C21.19 7.05976 20.68 8.06976 20.18 8.56976" stroke="#577D11" stroke-width="2" stroke-miterlimit="10" stroke-linecap="round" stroke-linejoin="round"/>
<path d="M16.57 16.5201C18.3373 16.5201 19.77 15.0874 19.77 13.3201C19.77 11.5528 18.3373 10.1201 16.57 10.1201C14.8027 10.1201 13.37 11.5528 13.37 13.3201C13.37 15.0874 14.8027 16.5201 16.57 16.5201Z" stroke="#577D11" stroke-width="2" stroke-linecap="round" stroke-linejoin="round"/>
<path d="M20.37 17.1201L19.37 16.1201" stroke="#577D11" stroke-width="1.5" stroke-linecap="round" stroke-linejoin="round"/>
</svg>
