<svg width="21" height="20" viewBox="0 0 21 20" fill="none" xmlns="http://www.w3.org/2000/svg">
<path d="M19.86 6.36985L12.93 0.829849C11.86 -0.0301508 10.13 -0.0301508 9.07002 0.819849L2.14002 6.36985C1.36002 6.98985 0.860021 8.29985 1.03002 9.27985L2.36002 17.2398C2.60002 18.6598 3.96002 19.8098 5.40002 19.8098H16.6C18.03 19.8098 19.4 18.6498 19.64 17.2398L20.97 9.27985C21.13 8.29985 20.63 6.98985 19.86 6.36985ZM11 13.4998C9.62002 13.4998 8.50002 12.3798 8.50002 10.9998C8.50002 9.61985 9.62002 8.49985 11 8.49985C12.38 8.49985 13.5 9.61985 13.5 10.9998C13.5 12.3798 12.38 13.4998 11 13.4998Z" fill="#577D11"/>
</svg>
