<svg width="222" height="197" viewBox="0 0 222 197" fill="none" xmlns="http://www.w3.org/2000/svg">
<g clip-path="url(#clip0_870_20218)">
<path d="M250 -40.5H-28V237.5H250V-40.5Z" fill="white"/>
<path fill-rule="evenodd" clip-rule="evenodd" d="M23.9905 162.973C40.7706 181.239 105.66 170.746 148.387 170.746C166.819 170.746 228.676 179.985 203.133 116.54C119.38 -91.4862 -29.1774 105.098 23.9905 162.973Z" fill="#9DB275"/>
<path fill-rule="evenodd" clip-rule="evenodd" d="M98.2346 164.442C98.3161 164.379 98.4018 164.312 98.4373 164.215C98.5511 163.906 98.1045 163.7 97.775 163.707C97.2964 163.718 96.6833 164.041 96.8298 164.496C96.9143 164.76 97.239 164.882 97.5114 164.833C97.7842 164.784 98.0152 164.611 98.2346 164.442ZM99.6568 159.018C100.018 159.131 100.374 159.271 100.689 159.482C101.28 159.878 101.681 160.491 102.067 161.089C102.343 161.517 102.624 161.953 102.762 162.443C102.911 162.975 102.885 163.542 102.785 164.085C102.473 165.775 101.429 167.318 99.9764 168.237C98.5233 169.155 96.6822 169.437 95.0213 168.993C94.6977 168.907 94.3722 168.79 94.1235 168.566C93.9145 168.377 93.7736 168.127 93.6446 167.877C92.9682 166.565 92.5119 165.108 92.5641 163.633C92.6164 162.158 93.2228 160.665 94.3711 159.738C95.8123 158.574 97.8895 158.464 99.6568 159.018Z" fill="white"/>
<path fill-rule="evenodd" clip-rule="evenodd" d="M175.94 78.7734C175.148 78.7634 174.405 79.4276 174.327 80.2156C174.294 80.5377 174.431 80.9381 174.752 80.9825C174.992 81.0155 175.203 80.8302 175.364 80.6489C175.706 80.266 175.999 79.8405 176.235 79.385C176.314 79.2319 176.384 79.0358 176.28 78.8987C176.204 78.799 176.065 78.7749 175.94 78.7734ZM175.597 75.2394C176.721 75.6316 177.741 76.3218 178.522 77.2203C179.195 77.9924 179.706 78.995 179.565 80.0088C179.513 80.381 179.376 80.7361 179.219 81.0778C178.626 82.3714 177.606 83.6113 176.205 83.8619C175.47 83.9935 174.712 83.8359 174.005 83.5954C173.188 83.3174 172.408 82.9274 171.696 82.4396C171.317 82.1809 170.942 81.8736 170.777 81.4466C170.662 81.1523 170.659 80.8283 170.663 80.5125C170.674 79.7319 170.726 78.9379 170.998 78.2063C171.342 77.2803 172.016 76.516 172.73 75.834C173.018 75.5597 173.322 75.2895 173.692 75.1423C174.295 74.9018 174.983 75.0252 175.597 75.2394Z" fill="white"/>
<path fill-rule="evenodd" clip-rule="evenodd" d="M175.941 18.913C180.594 23.7121 184.266 29.4503 186.671 35.6779C186.836 36.1057 186.996 36.5805 186.839 37.0112C185.626 40.3261 183.285 43.0901 180.99 45.7775C179.523 47.4944 178.057 49.2117 176.59 50.9286C175.19 52.5681 173.79 54.2075 172.342 55.8059C164.973 63.9424 156.265 71.0573 146.18 75.4349C145.799 75.6002 145.391 75.7648 144.981 75.6988C144.571 75.6328 144.187 75.2366 144.295 74.837C145.541 70.1936 146.797 65.339 145.796 60.6371C145.554 59.5029 145.285 58.0751 146.226 57.3927C153.843 51.8672 159.327 43.9694 164.582 36.1787C165.904 34.2197 167.222 32.2552 168.391 30.2028C170.467 26.5584 172.066 22.6445 173.135 18.5913C173.282 18.0353 173.986 17.7847 174.545 17.9304C175.103 18.0764 175.54 18.4994 175.941 18.913Z" fill="white"/>
<path fill-rule="evenodd" clip-rule="evenodd" d="M30.8224 37.5559C31.579 44.395 33.6847 51.0826 36.9829 57.1219C39.0253 60.8608 41.5091 64.3376 43.9867 67.8037C45.7106 70.2157 47.554 72.7292 50.2439 73.9757C50.9593 74.3074 50.8592 75.3383 50.6676 76.103C49.8376 79.4078 49.4507 82.8231 49.5196 86.2299C49.5263 86.5517 49.5344 86.8853 49.408 87.1814C48.9788 88.1863 47.508 88.0188 46.4957 87.6077C40.2307 85.0646 35.4209 79.9505 30.9281 74.8979C25.0945 68.3379 19.3477 61.4902 15.9016 53.4163C15.6674 52.8673 15.4398 52.2899 15.4791 51.6942C15.5191 51.0874 15.8308 50.5359 16.147 50.0166C19.271 44.8854 23.617 40.5038 28.7226 37.3383C29.0825 37.1155 29.4662 36.892 29.8891 36.8775C30.312 36.8627 30.7757 37.1351 30.8224 37.5559Z" fill="white"/>
<path fill-rule="evenodd" clip-rule="evenodd" d="M175.028 157.538C175.568 156.623 176.237 155.616 177.285 155.442C177.698 155.374 177.916 154.925 178.056 154.531C179.789 149.671 179.956 144.268 178.527 139.311C178.119 137.896 178.621 136.396 179.118 135.01C180.4 131.433 181.682 127.855 182.965 124.279C182.23 123.008 180.293 123.045 179.301 121.964C178.023 120.572 178.987 118.359 179.987 116.757C185.832 107.397 191.677 98.0361 197.522 88.6757C198.238 87.5288 199.809 87.1693 201.126 87.4751C202.443 87.7805 203.568 88.6093 204.651 89.4185C208.914 92.6025 213.177 95.7865 217.44 98.9702C219.727 100.679 222.253 102.862 222.121 105.714C222.048 107.293 221.145 108.696 220.271 110.013C216.893 115.103 213.515 120.194 210.136 125.285C208.233 128.153 208.759 131.919 208.183 135.313C207.274 140.675 203.597 145.079 200.192 149.32C196.788 153.561 193.381 158.296 193.189 163.731C192.961 170.209 189.884 176.536 184.928 180.715C186.365 177.228 177.285 178.619 166.897 174.486C168.606 168.438 171.834 162.95 175.028 157.538Z" fill="white"/>
<path fill-rule="evenodd" clip-rule="evenodd" d="M60.9635 172.703C60.3159 172.173 60.1095 171.279 59.9949 170.447C58.672 160.829 64.3536 151.335 63.3413 141.678C62.8198 136.702 60.5335 132.059 57.656 127.975C55.6689 125.155 55.5577 121.376 56.299 118.002C57.0403 114.628 58.5356 111.473 59.5442 108.169C64.0296 93.4781 58.5719 77.7841 53.1758 63.4055C63.9281 58.2062 76.4755 59.2133 88.3873 59.9176C100.299 60.6222 113.11 60.6719 123.038 54.0195C124.399 68.4107 121.398 82.8177 118.415 96.9594C133.553 95.4845 148.692 94.0096 163.831 92.5348C164.265 92.4925 164.739 92.4599 165.1 92.7064C165.581 93.0352 165.655 93.7057 165.683 94.2899C166.39 109.256 166.82 124.236 166.97 139.218C166.973 139.594 166.96 140.013 166.697 140.28C166.471 140.508 166.127 140.555 165.808 140.591C144.599 142.954 123.389 145.318 102.18 147.681C100.346 147.886 97.7332 147.408 97.8404 145.557C98.3193 137.302 98.0398 129.002 97.0064 120.798C91.37 120.585 85.6951 121.445 80.3712 123.318C79.1636 123.743 77.7113 124.885 78.3626 125.992C82.6723 133.316 77.3232 144.324 83.1764 150.471C85.1888 152.585 85.0498 155.911 84.6509 158.808C83.7962 165.02 82.3435 171.149 80.3204 177.081C81.2986 170.253 61.5614 176.365 60.9635 172.703Z" fill="white"/>
<path fill-rule="evenodd" clip-rule="evenodd" d="M0.298612 17.7044C0.316738 17.8501 0.237858 18.0031 0.108607 18.0732C0.00567271 17.9702 -0.0972612 17.8671 -0.200195 17.7641C-0.0458868 17.6966 0.129104 17.6773 0.294421 17.7096L0.298612 17.7044Z" fill="#0D0D0D"/>
<path fill-rule="evenodd" clip-rule="evenodd" d="M99.2862 159.018C99.6473 159.131 100.004 159.271 100.319 159.482C100.909 159.878 101.311 160.491 101.697 161.089C101.973 161.517 102.253 161.953 102.391 162.443C102.541 162.975 102.514 163.542 102.414 164.085C102.102 165.775 101.059 167.318 99.6057 168.237C98.1527 169.155 96.3116 169.437 94.6507 168.993C94.3271 168.907 94.0016 168.79 93.7529 168.566C93.5439 168.377 93.403 168.127 93.274 167.877C92.5976 166.565 92.1413 165.108 92.1935 163.633C92.2458 162.158 92.8522 160.665 94.0005 159.738C95.4417 158.574 97.5189 158.464 99.2862 159.018ZM97.2605 167.8C98.1642 167.663 98.9593 167.073 99.4786 166.321C99.9979 165.569 100.264 164.667 100.392 163.763C100.465 163.246 100.472 162.654 100.107 162.28C99.8886 162.057 99.5768 161.957 99.2777 161.868C98.1542 161.532 96.8721 161.246 95.8657 161.848C95.1333 162.286 94.7248 163.099 94.3545 163.868C93.9208 164.769 94.028 165.906 94.6221 166.71C95.2163 167.514 96.272 167.95 97.2605 167.8Z" fill="#0D0D0D"/>
<path fill-rule="evenodd" clip-rule="evenodd" d="M140.556 118.438C140.572 118.246 140.595 118.041 140.722 117.896C140.846 117.755 141.041 117.704 141.224 117.661C145.944 116.562 150.82 116.132 155.659 116.388C156.276 116.421 157.069 116.63 157.109 117.245C157.343 120.776 157.577 124.307 157.811 127.838C157.822 128.017 157.828 128.215 157.714 128.353C157.621 128.465 157.47 128.508 157.329 128.545C152.296 129.858 146.99 130.116 141.853 129.3C141.72 129.279 141.581 129.254 141.479 129.168C141.355 129.064 141.311 128.895 141.276 128.737C140.518 125.366 140.275 121.881 140.556 118.438ZM141.67 124.295C141.762 125.629 142.042 126.949 142.498 128.205C142.952 128.271 143.402 128.365 143.855 128.442C147.76 129.103 151.752 128.438 155.656 127.774C155.933 127.727 156.237 127.664 156.408 127.441C156.582 127.213 156.559 126.896 156.528 126.61C156.393 125.394 156.259 124.177 156.124 122.961C156.113 122.863 156.1 122.757 156.033 122.684C155.952 122.596 155.821 122.581 155.701 122.574C152.927 122.391 150.144 122.598 147.372 122.805C145.84 122.919 144.307 123.034 142.775 123.148C142.415 123.175 142.005 123.228 141.799 123.524C141.646 123.742 141.651 124.03 141.67 124.295ZM141.713 119.206C141.47 119.984 141.427 120.823 141.587 121.621C141.616 121.765 141.657 121.916 141.766 122.014C141.927 122.159 142.173 122.135 142.388 122.104C144.999 121.721 147.638 121.531 150.276 121.535C150.648 121.536 150.762 121.035 150.758 120.663C150.752 120.118 150.746 119.572 150.741 119.027C150.737 118.711 150.721 118.364 150.505 118.134C150.246 117.857 149.812 117.866 149.434 117.895C148.56 117.961 147.686 118.028 146.811 118.095C146.393 118.127 145.284 118.411 144.774 118.444C143.887 118.586 143 118.728 142.112 118.869C142.017 118.884 141.918 118.902 141.845 118.964C141.774 119.024 141.74 119.117 141.713 119.206ZM153.417 121.579C154.111 121.588 154.805 121.518 155.484 121.372C155.645 121.337 155.815 121.293 155.93 121.175C156.099 121.001 156.097 120.729 156.085 120.486C156.049 119.783 156.013 119.08 155.977 118.377C155.965 118.126 155.937 117.844 155.74 117.687C155.568 117.549 155.325 117.557 155.104 117.572C154.333 117.624 153.561 117.677 152.79 117.729C152.668 117.738 152.539 117.748 152.437 117.816C152.251 117.939 152.222 118.197 152.217 118.421C152.2 119.167 152.231 119.913 152.308 120.655C152.331 120.869 152.362 121.095 152.495 121.265C152.702 121.53 153.081 121.574 153.417 121.579Z" fill="#9A00C9"/>
<path fill-rule="evenodd" clip-rule="evenodd" d="M152.637 103.007C153.668 102.561 154.933 102.711 155.832 103.385C156.73 104.059 157.228 105.232 157.088 106.347C157.72 106.005 158.521 105.669 159.111 106.079C159.777 106.542 159.625 107.54 159.525 108.345C159.35 109.751 159.576 111.205 160.171 112.491C160.416 113.022 160.627 113.828 160.082 114.043C159.991 114.079 159.89 114.087 159.792 114.095C153.406 114.61 147.019 115.124 140.632 115.639C140.457 115.653 140.261 115.661 140.129 115.545C139.993 115.428 139.976 115.227 139.969 115.048C139.908 113.546 139.847 112.044 139.785 110.541C139.769 110.139 139.761 109.704 139.989 109.371C140.366 108.82 141.154 108.822 141.813 108.716C142.472 108.611 143.239 108.055 142.985 107.437C142.703 106.749 143.667 106.246 144.402 106.134C145.138 106.022 146.113 105.584 145.891 104.874C145.647 104.099 146.714 103.617 147.52 103.51C148.089 103.435 148.683 103.362 149.223 103.557C149.762 103.752 150.218 104.307 150.096 104.867C149.957 105.509 150.739 106.107 151.355 105.88C151.971 105.654 152.221 104.811 151.909 104.234C151.654 103.762 152.145 103.22 152.637 103.007ZM155.935 112.907C155.696 112.464 155.694 111.937 155.692 111.433C155.682 109.071 155.537 106.708 155.257 104.362C155.243 104.244 155.221 104.111 155.124 104.042C155.041 103.982 154.928 103.99 154.826 103.999C154.327 104.046 153.736 104.156 153.538 104.617C153.454 104.813 153.464 105.035 153.476 105.249C153.602 107.617 153.729 109.985 153.855 112.353C153.867 112.573 153.896 112.827 154.079 112.95C154.18 113.017 154.305 113.03 154.425 113.036C154.931 113.064 155.441 113.02 155.935 112.907ZM147.345 109.266C147.283 109.66 147.196 110.052 147.173 110.451C147.134 111.117 147.274 111.779 147.414 112.432C147.503 112.85 148.044 113.056 148.441 112.895C148.837 112.734 149.077 112.311 149.142 111.888C149.208 111.465 149.131 111.035 149.064 110.612C148.799 108.952 148.684 107.268 148.721 105.587C148.731 105.162 148.316 104.778 147.893 104.82C147.47 104.862 147.138 105.32 147.231 105.735C147.49 106.891 147.528 108.095 147.345 109.266ZM151.545 106.998C151.296 106.672 150.725 106.846 150.531 107.207C150.337 107.568 150.396 108.006 150.444 108.414C150.57 109.478 150.582 110.556 150.48 111.622C150.45 111.937 150.417 112.28 150.59 112.544C150.857 112.95 151.443 112.946 151.927 112.897C152.078 112.882 152.252 112.853 152.329 112.721C152.382 112.629 152.369 112.515 152.355 112.41C152.132 110.755 151.909 109.1 151.686 107.445C151.665 107.288 151.641 107.124 151.545 106.998ZM157.077 107.709C156.89 107.965 156.85 108.298 156.834 108.615C156.778 109.701 156.922 110.786 157.065 111.865C157.122 112.29 157.316 112.836 157.744 112.807C158.177 112.777 158.29 112.198 158.28 111.763C158.254 110.613 158.227 109.463 158.2 108.313C158.193 108.011 158.161 107.661 157.91 107.492C157.647 107.315 157.265 107.453 157.077 107.709ZM143.987 107.437C143.987 107.437 144.177 108.938 144.243 109.703C144.326 110.663 144.433 111.621 144.562 112.576C144.58 112.715 144.605 112.865 144.708 112.96C144.885 113.126 145.569 113.016 145.695 112.809C145.821 112.602 145.814 112.343 145.803 112.1C145.768 111.334 145.734 110.567 145.699 109.8C145.662 108.979 145.466 107.207 145.466 107.207M141.504 112.872C141.559 113.044 141.624 113.224 141.763 113.339C142.034 113.563 142.474 113.424 142.688 113.145C142.902 112.865 142.95 112.497 142.991 112.147C143.041 111.718 143.089 111.272 142.95 110.862C142.811 110.454 142.427 110.093 141.996 110.131C141.601 110.166 141.294 110.528 141.201 110.915C141.109 111.301 141.187 111.706 141.283 112.092C141.349 112.354 141.422 112.615 141.504 112.872Z" fill="#667085"/>
<path fill-rule="evenodd" clip-rule="evenodd" d="M167.393 51.41C166.878 52.184 166.319 52.968 165.521 53.4461C164.723 53.9239 163.622 54.0169 162.905 53.4246C162.114 52.7708 162.065 51.5924 162.128 50.5683C162.152 50.1742 162.183 49.7765 162.296 49.3981C162.492 48.7416 162.92 48.1812 163.367 47.6619C163.909 47.0314 164.509 46.4235 165.261 46.0687C166.012 45.714 166.946 45.6517 167.651 46.0932C168.494 46.6214 168.806 47.7449 168.646 48.7272C168.487 49.7091 167.945 50.582 167.393 51.41ZM165.756 52.2288C166.406 51.5364 166.964 50.7569 167.41 49.9181C167.703 49.3662 167.952 48.7661 167.941 48.1411C167.929 47.5162 167.599 46.8627 167.019 46.631C166.263 46.3289 165.433 46.8119 164.801 47.3253C164.351 47.6911 163.915 48.0918 163.627 48.5948C163.444 48.9125 163.326 49.2624 163.208 49.6093C162.986 50.2662 162.761 50.9508 162.845 51.6387C162.93 52.3271 163.422 53.018 164.112 53.0892C164.751 53.1551 165.317 52.6966 165.756 52.2288Z" fill="#9A00C9"/>
<path fill-rule="evenodd" clip-rule="evenodd" d="M34.568 60.1598C35.3757 60.9779 36.0425 61.9349 36.5303 62.9761C37.0207 64.0225 36.5262 65.3673 35.5643 66.0074C34.6024 66.6476 33.3018 66.6391 32.2469 66.1676C31.1919 65.6957 30.3631 64.8154 29.7526 63.8342C29.2923 63.0944 28.9353 62.2656 28.8971 61.3952C28.8586 60.5249 29.1792 59.609 29.8675 59.0752C30.564 58.5355 31.5433 58.4584 32.3855 58.7172C33.2276 58.9763 33.949 59.5326 34.568 60.1598ZM31.4162 59.662C30.7175 59.5901 30.0966 60.2317 29.9765 60.9241C29.8568 61.6161 30.1207 62.3189 30.4621 62.9328C31.2027 64.2642 32.5241 65.447 34.0457 65.3736C34.8282 65.3354 35.6855 64.7935 35.6718 64.0107C35.6659 63.6719 35.4987 63.3594 35.3319 63.0647C34.8886 62.2819 34.4097 61.5068 33.7703 60.8737C33.1309 60.2406 32.3114 59.7543 31.4162 59.662Z" fill="#9A00C9"/>
<path fill-rule="evenodd" clip-rule="evenodd" d="M95.6443 163.164C96.2055 162.737 96.9031 162.462 97.6066 162.507C98.3098 162.552 99.0055 162.956 99.2998 163.596C99.6157 164.283 99.4188 165.137 98.9262 165.711C98.4336 166.285 97.6915 166.602 96.9424 166.706C96.4313 166.778 95.8219 166.713 95.542 166.28C95.4071 166.071 95.3763 165.813 95.3493 165.566C95.3007 165.121 95.2518 164.677 95.2032 164.232C95.1825 164.044 95.1625 163.849 95.2229 163.669C95.2944 163.458 95.4671 163.299 95.6443 163.164ZM97.8639 164.442C97.9454 164.379 98.0311 164.312 98.0666 164.215C98.1804 163.906 97.7338 163.7 97.4043 163.707C96.9257 163.718 96.3126 164.041 96.4591 164.496C96.5436 164.76 96.8683 164.882 97.1407 164.833C97.4135 164.785 97.6444 164.611 97.8639 164.442Z" fill="#0D0D0D"/>
<path fill-rule="evenodd" clip-rule="evenodd" d="M175.122 21.0794C179.493 25.6049 182.944 31.0166 185.203 36.8895C185.358 37.2928 185.508 37.7409 185.36 38.1468C184.22 41.2734 182.022 43.8795 179.865 46.4138L175.732 51.2721C174.416 52.8181 173.101 54.3642 171.741 55.8713C164.817 63.5445 156.637 70.2543 147.162 74.3824C146.805 74.5385 146.421 74.6938 146.036 74.6315C145.651 74.5692 145.29 74.1956 145.391 73.8186C146.562 69.4399 147.741 64.8618 146.801 60.4276C146.574 59.3578 146.322 58.0112 147.205 57.3677C154.361 52.1569 159.513 44.7087 164.45 37.3617C165.692 35.5143 166.93 33.6617 168.029 31.7261C169.98 28.2893 171.482 24.5982 172.486 20.7762C172.624 20.2514 173.286 20.0152 173.81 20.1528C174.335 20.2903 174.745 20.6895 175.122 21.0794ZM172.062 26.6995C171.618 26.5156 171.208 27.0127 170.982 27.4367C170.737 27.896 170.492 28.356 170.247 28.816C165.717 37.3239 161.119 45.9627 154.216 52.6639C153.564 53.297 152.835 54.0617 152.955 54.9628C153.34 57.851 151.799 60.9009 149.244 62.3028C148.085 62.9396 148.099 64.582 148.268 65.8938C148.337 66.419 148.535 67.0773 149.063 67.1218C150.611 67.2523 152.096 68.0144 153.105 69.1953C153.423 69.5678 154.026 69.335 154.441 69.0741C164.883 62.5096 172.907 52.813 180.741 43.2861C181.011 42.9573 181.298 42.5433 181.158 42.1418C179.972 38.7651 180.162 34.9272 181.675 31.6838C180.782 29.9072 179.718 28.217 178.502 26.6435C176.479 27.5216 174.1 27.5424 172.062 26.6995ZM147.294 72.6484C147.706 72.8642 148.205 72.6592 148.617 72.4438C149.7 71.8786 150.743 71.2369 151.736 70.5253C151.998 70.337 152.077 69.9615 151.984 69.6523C151.891 69.3432 151.659 69.0937 151.402 68.8984C150.599 68.289 149.476 68.1289 148.535 68.4892C148.361 68.5559 148.188 68.6426 148.069 68.785C147.928 68.9521 147.876 69.1742 147.832 69.3877C147.604 70.466 147.425 71.5542 147.294 72.6484ZM176.618 24.451C175.909 23.0636 174.815 21.8756 173.49 21.0546C173.03 21.4605 172.94 22.0776 172.849 22.7067V22.707C172.786 23.1385 172.723 23.5759 172.538 23.9547C172.478 24.0781 172.404 24.196 172.331 24.3139C172.191 24.5378 172.051 24.7609 172.007 25.0185C171.938 25.411 172.27 25.9033 172.647 25.7736C172.954 25.6679 173.275 25.7357 173.599 25.8043C173.769 25.8403 173.941 25.8766 174.112 25.8877C175.106 25.9518 175.931 25.1727 176.618 24.451ZM182.242 32.7658C181.482 34.2778 181.602 36.0633 181.74 37.7498L181.939 40.1688C181.96 40.4345 182.105 40.7937 182.361 40.7199C182.52 40.2744 182.824 39.9067 183.128 39.5383C183.394 39.2162 183.66 38.8929 183.832 38.5163C184.412 37.2405 183.768 35.7704 183.133 34.5209L182.242 32.7658ZM148.218 59.6106C148.25 60.0839 148.741 60.4379 149.215 60.4246C149.689 60.4113 150.116 60.1047 150.393 59.72C150.669 59.3348 150.821 58.8767 150.97 58.4259L151.458 56.9385C151.594 56.5237 151.603 55.8895 151.169 55.8409C151.012 55.8231 150.863 55.9062 150.735 55.9973C150.248 56.3432 149.894 56.8395 149.55 57.3266L148.611 58.6528C148.407 58.9404 148.194 59.2592 148.218 59.6106ZM36.2417 55.64C32.9435 49.6011 30.8378 42.9136 30.0812 36.074C30.0345 35.6533 29.5708 35.3809 29.1479 35.3957C28.725 35.4101 28.3413 35.6337 27.9814 35.8568C22.8758 39.0223 18.5298 43.4036 15.4058 48.5351C15.0896 49.0544 14.7779 49.6059 14.7378 50.2127C14.6986 50.808 14.9261 51.3859 15.1604 51.9345C18.6065 60.0083 24.3533 66.8564 30.1869 73.4161C34.6797 78.4686 39.4895 83.5831 45.7545 86.1262C46.7668 86.5373 48.2376 86.7045 48.6668 85.6996C48.7917 85.4072 48.7851 85.0784 48.7788 84.7603L48.7784 84.7481C48.7094 81.3417 49.0964 77.926 49.9263 74.6215C50.118 73.8568 50.2181 72.8256 49.5027 72.4942C46.8127 71.2477 44.9694 68.7342 43.2454 66.3219C40.7679 62.8558 38.2841 59.3793 36.2417 55.64ZM42.0645 82.0382C41.6938 82.1368 41.3239 81.9032 41.0144 81.6764C35.3128 77.499 30.8941 71.8448 26.5528 66.2667L18.8915 56.4229C20.1844 55.5992 20.3486 53.8097 20.3768 52.2766C20.4135 50.2839 20.4402 48.2326 19.7203 46.3741C19.5606 45.9612 19.7689 45.5034 19.992 45.1205C20.9484 43.4792 22.275 42.0547 23.8444 40.9842C23.9964 40.8804 24.1572 40.7778 24.3392 40.7518C24.82 40.684 25.1888 41.1514 25.4457 41.5632C26.4598 43.1897 27.8539 45.0293 29.7662 44.8955C30.4941 44.8444 30.8982 45.7021 31.1106 46.4004C33.7519 55.0844 38.7115 62.917 44.5276 69.8855C45.2834 70.791 45.4728 72.0135 45.6607 73.2244C45.8701 74.5752 46.0777 75.9118 47.0655 76.7799C47.9092 77.5216 47.7528 78.853 47.5248 79.9528C47.4785 80.1778 47.4229 80.4187 47.252 80.5722C47.1252 80.6863 46.9536 80.7338 46.7887 80.7779L42.0645 82.0382ZM28.5474 42.8839C27.5014 42.1529 26.5977 41.2192 25.902 40.1495C25.7515 39.9182 25.6054 39.6587 25.6317 39.3841C25.6603 39.0853 25.8853 38.8462 26.1088 38.6461C26.6611 38.152 27.2853 37.7383 27.9554 37.4221C28.2008 37.3061 28.5178 37.2123 28.7216 37.3914C28.8417 37.4966 28.8799 37.6653 28.911 37.8221L29.877 42.6537C29.9341 42.9391 29.6346 43.1964 29.3436 43.2049C29.0522 43.2131 28.7861 43.0507 28.5474 42.8839ZM18.9868 52.2291C18.9664 53.138 18.8971 54.1581 18.2158 54.7601C18.0735 54.7767 17.9786 54.6203 17.923 54.4884C17.4322 53.3267 16.9348 52.1369 16.8573 50.8784C16.7802 49.6197 17.202 48.2567 18.2306 47.5272C18.3696 47.4283 18.5739 47.3467 18.6966 47.4653C18.7459 47.5128 18.767 47.5817 18.7852 47.6481C19.0646 48.6756 19.0428 49.7575 19.0187 50.8217L18.9868 52.2291ZM46.7427 82.4589C46.9076 82.5942 46.9254 82.8358 46.9299 83.0493L46.9788 85.3853C46.0206 84.8541 45.1025 84.2503 44.2351 83.5809C44.0709 83.4541 43.89 83.2484 43.9909 83.0668C44.0409 82.9767 44.1447 82.9333 44.2411 82.8977C44.8612 82.669 45.5024 82.4974 46.1537 82.3858C46.355 82.3514 46.5844 82.3295 46.7427 82.4589ZM46.7979 73.2574C46.789 73.1518 46.789 73.0369 46.8517 72.9516C47.0174 72.7266 47.3762 72.9305 47.5281 73.1648C47.8936 73.7293 47.9744 74.4688 47.7394 75.0989C47.2023 74.6385 46.8565 73.9621 46.7979 73.2574ZM189.533 55.5199C190.488 54.3171 192.229 54.144 193.765 54.1814C194.123 54.19 194.493 54.2074 194.819 54.3564C195.728 54.7704 195.92 55.9573 195.951 56.9551C195.979 57.8629 195.974 58.7829 195.753 59.664C195.532 60.5451 195.076 61.3939 194.346 61.9347C194.018 62.1778 193.638 62.355 193.235 62.4225C192.613 62.5266 191.976 62.3669 191.385 62.1467C190.597 61.8535 189.849 61.4506 189.171 60.9535C188.84 60.7107 188.497 60.3931 188.487 59.9824C188.462 59.0353 188.568 58.0853 188.801 57.1668C188.95 56.58 189.157 55.994 189.533 55.5199ZM192.01 61.5103C193.236 61.8624 194.54 60.9139 195.005 59.7255C195.47 58.5375 195.298 57.2027 195.042 55.9529C194.944 55.4728 194.431 55.2049 193.959 55.0766C193.227 54.8779 192.449 54.8516 191.705 55.0003C191.336 55.074 190.958 55.2008 190.699 55.474C190.558 55.623 190.46 55.8072 190.364 55.9884L189.646 57.3462C189.519 57.5853 189.392 57.8262 189.318 58.0857C189.096 58.8626 189.389 59.7255 189.932 60.3241C190.474 60.9231 191.233 61.2875 192.01 61.5103ZM175.597 75.2394C176.721 75.6316 177.741 76.3217 178.522 77.2202C179.194 77.9927 179.706 78.995 179.565 80.0088C179.513 80.3813 179.376 80.736 179.219 81.0778C178.626 82.3714 177.606 83.6116 176.205 83.8622C175.47 83.9934 174.712 83.8359 174.005 83.5953C173.188 83.3173 172.408 82.9274 171.696 82.4396C171.318 82.1809 170.942 81.8736 170.777 81.4466C170.662 81.1523 170.659 80.8283 170.663 80.5125C170.674 79.7319 170.726 78.9379 170.998 78.2062C171.342 77.2803 172.016 76.516 172.73 75.8339C173.018 75.5597 173.322 75.2894 173.692 75.1423C174.295 74.9017 174.983 75.0252 175.597 75.2394ZM176.747 82.0441C177.559 81.2401 178.032 80.0744 177.903 78.9383C177.774 77.8022 177.006 76.7361 175.93 76.3484C175.483 76.1872 174.988 76.142 174.53 76.2687C174.283 76.3373 174.051 76.4537 173.835 76.5912C172.909 77.1798 172.259 78.184 172.101 79.2696C171.944 80.3553 172.281 81.5033 173.001 82.331C173.461 82.8614 174.214 83.0886 174.911 83.0004C175.608 82.9126 176.247 82.5382 176.747 82.0441ZM74.1131 68.5422C74.0753 68.0066 73.3591 67.8665 72.8224 67.882C70.0046 67.9651 67.1901 68.176 64.3916 68.5148C63.9316 68.5704 63.8945 69.3113 64.2634 69.5915C64.6325 69.8714 65.1463 69.8195 65.6048 69.7539L74.1131 68.5422ZM65.1048 72.1643C65.1292 71.8886 65.4758 71.7889 65.7508 71.7577L82.3486 69.8781C82.6488 69.844 82.9687 69.8132 83.2389 69.9485C83.5088 70.0834 83.683 70.4533 83.5065 70.6987C83.3764 70.8792 83.1273 70.9159 82.9057 70.9374L65.9291 72.585C65.5763 72.6191 65.0736 72.5176 65.1048 72.1643ZM102.315 74.9603C101.386 75.1642 100.433 74.8291 99.5423 74.4962C96.6626 73.4202 93.794 72.3141 90.9373 71.1787C89.7841 70.7202 88.5187 71.4067 87.4815 72.088C84.4799 74.0599 81.5898 76.2016 78.8302 78.4998C78.1215 79.0899 77.0306 78.6758 76.3156 78.0928C76.1644 77.9697 76.0157 77.8381 75.8663 77.7062C75.3096 77.2139 74.7454 76.7158 74.0252 76.6135C72.9181 76.4563 71.9443 77.2955 71.1418 78.0746L65.9684 83.099C65.2727 83.7747 64.5402 84.8567 65.1596 85.6032C65.5681 86.0958 66.3183 86.0706 66.954 85.9973C70.273 85.6125 73.5753 85.0728 76.8768 84.5335C82.3334 83.6424 87.787 82.7517 93.3058 82.5604C94.5287 82.5182 95.7522 82.5104 96.9762 82.5026C97.7423 82.4978 98.5089 82.493 99.2751 82.4796C102.731 82.4192 106.183 82.1864 109.616 81.7824C109.782 81.7628 109.971 81.7287 110.057 81.5852C110.122 81.477 110.106 81.3406 110.087 81.2156L108.633 71.3229C108.56 70.8203 108.431 70.2395 107.971 70.0223C107.507 69.8028 106.96 70.0856 106.579 70.43C105.983 70.9682 105.524 71.6836 105.071 72.389C104.328 73.5462 103.601 74.6771 102.315 74.9603ZM78.7034 80.3731C81.8085 77.82 85.0463 75.4281 88.3993 73.2104C89.088 72.7552 89.9246 72.2889 90.6941 72.5876L98.8243 75.7472C100.181 76.2743 101.665 76.8084 103.058 76.3859C104.678 75.8944 105.646 74.2831 106.462 72.8004C106.62 72.5117 107.081 72.545 107.31 72.7819C107.538 73.0191 107.596 73.3675 107.643 73.6933L108.238 77.8189C108.33 78.4523 108.419 79.1095 108.236 79.723C108.053 80.3361 107.515 80.8932 106.876 80.8809C96.4102 80.6789 85.9244 81.5418 75.6325 83.4523C75.3152 83.5112 74.9979 83.5709 74.6802 83.6309H74.6795L74.6791 83.6313H74.6787H74.678L74.6776 83.6317H74.6769H74.6765H74.6758C72.2171 84.0961 69.7496 84.562 67.2509 84.5702C68.4574 82.8614 69.9865 81.4099 71.5047 79.9706C72.338 79.1803 73.3803 78.3282 74.4993 78.5865C75.1039 78.7263 75.5672 79.1603 76.0283 79.5925C76.1762 79.7308 76.3237 79.869 76.4757 79.9976C77.1018 80.5258 78.0707 80.8932 78.7034 80.3731ZM212.968 109.151C212.691 109.254 212.381 109.184 212.098 109.095C210.184 108.493 208.63 107.148 207.103 105.826C206.896 105.647 206.689 105.468 206.483 105.292C203.952 103.133 201.205 101.227 198.297 99.6118C198.001 99.4473 197.691 99.2745 197.51 98.9887C197.328 98.7026 197.334 98.2674 197.613 98.0765C198.917 97.1862 199.763 95.6583 199.825 94.0807C199.842 93.66 200.317 93.3798 200.736 93.4136C201.156 93.4473 201.521 93.6993 201.864 93.9429L215.153 103.376C215.412 103.559 215.691 103.773 215.754 104.083C215.806 104.337 215.7 104.594 215.592 104.829C215.019 106.094 214.36 107.32 213.621 108.495C213.454 108.761 213.263 109.041 212.968 109.151ZM199.673 97.9605C199.517 98.2363 199.382 98.6348 199.635 98.8253L210.479 106.99C211.073 107.437 211.996 107.857 212.463 107.278C213 106.615 213.502 105.923 213.965 105.206C214.092 105.009 214.221 104.785 214.175 104.556C214.134 104.347 213.958 104.196 213.793 104.061C209.813 100.834 205.599 97.896 201.195 95.2769L199.673 97.9605ZM194.277 102.954C194.452 102.654 194.664 102.325 195.004 102.251C195.264 102.194 195.528 102.306 195.768 102.422C197.074 103.056 198.269 103.916 199.287 104.951C199.532 105.2 199.562 105.601 199.453 105.933C199.344 106.265 199.119 106.544 198.899 106.815C198.546 107.251 198.169 107.705 197.647 107.911C197.083 108.135 196.428 108.027 195.894 107.74C195.361 107.453 194.933 107.003 194.555 106.529C194.063 105.911 193.622 105.169 193.699 104.382C193.749 103.867 194.016 103.401 194.277 102.954ZM196.56 106.416C197.382 106.735 197.907 106.482 197.928 105.944C197.942 105.604 197.646 105.342 197.376 105.134L196.56 104.507C196.291 104.3 195.993 104.082 195.654 104.085C195.313 104.087 194.967 104.438 195.106 104.748C195.085 104.898 195.739 106.097 196.56 106.416ZM193.319 113.046C193.519 113.155 193.732 113.262 193.96 113.267C194.188 113.272 194.436 113.143 194.492 112.921C194.623 112.402 194.967 111.971 195.303 111.55C195.34 111.504 195.377 111.458 195.413 111.412C195.781 110.945 196.137 110.417 196.147 109.823C196.157 109.228 195.665 108.595 195.076 108.676C194.612 108.74 194.18 108.436 193.843 108.11C193.789 108.058 193.736 108.005 193.683 107.952C193.401 107.671 193.114 107.385 192.74 107.263C192.294 107.117 191.688 107.348 191.653 107.815C191.581 108.756 190.8 109.464 190.075 110.068C189.857 110.248 190.054 110.595 190.257 110.791C191.171 111.674 192.204 112.435 193.319 113.046ZM193.464 111.253L192.035 110.287C191.672 110.041 191.702 109.44 192.025 109.144C192.349 108.848 192.852 108.826 193.265 108.974C193.678 109.122 194.021 109.412 194.355 109.697C194.575 109.885 194.606 110.228 194.505 110.5C194.404 110.772 194.198 110.99 193.998 111.2C193.929 111.272 193.853 111.348 193.754 111.361C193.649 111.374 193.551 111.312 193.464 111.253ZM204.787 111.317L205.485 109.833C205.699 109.379 205.906 108.816 205.617 108.406C205.517 108.263 205.369 108.162 205.225 108.065L202.684 106.352C202.41 106.168 202.113 105.976 201.783 105.981C201.391 105.987 201.063 106.267 200.785 106.543C200.368 106.955 199.979 107.395 199.62 107.86C199.347 108.212 199.123 108.793 199.496 109.038L203.384 111.589C203.691 111.79 204.08 111.997 204.402 111.822C204.592 111.719 204.695 111.512 204.787 111.317ZM203.925 110.266C203.762 110.304 203.591 110.263 203.431 110.214C202.449 109.918 201.551 109.352 200.861 108.594C200.631 108.342 200.761 107.896 201.053 107.719C201.344 107.543 201.724 107.583 202.038 107.715C202.241 107.801 202.427 107.92 202.613 108.039C202.715 108.103 202.817 108.169 202.922 108.229C203.035 108.293 203.152 108.352 203.27 108.411C203.604 108.578 203.939 108.746 204.167 109.036C204.475 109.428 204.411 110.155 203.925 110.266ZM205.238 111.924C205.686 111.817 205.823 111.36 205.966 110.886C206.083 110.493 206.205 110.088 206.508 109.859C207.031 109.464 207.771 109.794 208.334 110.129L210.126 111.194C210.411 111.364 210.703 111.54 210.908 111.802C211.113 112.063 211.213 112.434 211.07 112.733C210.974 112.933 210.794 113.066 210.612 113.199C210.462 113.309 210.312 113.419 210.207 113.568C210.073 113.758 210.023 113.998 209.973 114.234C209.911 114.53 209.85 114.823 209.624 115.009C209.211 115.348 208.598 115.076 208.142 114.798L205.619 113.256C205.365 113.1 205.096 112.93 204.971 112.659C204.846 112.388 204.948 111.993 205.238 111.924ZM208.546 113.455C208.907 113.332 209.198 113.064 209.477 112.803C209.679 112.614 209.409 112.303 209.167 112.167L207.622 111.296C207.46 111.206 207.236 111.123 207.111 111.259C206.708 111.699 206.65 112.416 206.976 112.915C207.302 113.414 207.982 113.648 208.546 113.455ZM190.809 113.401C190.463 113.304 190.11 113.204 189.828 113.011C189.389 112.712 188.778 112.785 188.317 113.049C187.856 113.314 187.513 113.738 187.18 114.152C186.996 114.382 186.806 114.622 186.736 114.908C186.665 115.195 186.749 115.542 187.007 115.685L189.703 117.188C189.907 117.302 190.135 117.419 190.363 117.369C190.59 117.318 190.747 117.116 190.884 116.928L191.577 115.974C191.964 115.442 192.367 114.765 192.085 114.172C191.858 113.697 191.341 113.551 190.809 113.401ZM189.955 115.873C189.814 115.91 189.67 115.843 189.539 115.776L187.703 114.842C188.056 114.342 188.728 114.15 189.337 114.211C189.946 114.271 190.511 114.542 191.062 114.808L190.218 115.685C190.142 115.764 190.061 115.845 189.955 115.873ZM177.232 78.4979C177.516 78.9316 177.427 79.511 177.238 79.9939C176.99 80.6304 176.569 81.2201 175.976 81.5589C175.383 81.8973 174.603 81.947 174.024 81.583C173.446 81.219 173.156 80.4098 173.465 79.8008C173.537 79.66 173.635 79.535 173.733 79.4101C173.826 79.2908 173.92 79.1714 173.991 79.0376C174.037 78.9498 174.074 78.8564 174.11 78.7633C174.162 78.6288 174.215 78.4946 174.297 78.3775C174.592 77.9605 175.172 77.8785 175.682 77.8859C176.261 77.8941 176.914 78.0138 177.232 78.4979ZM175.94 78.7733C175.148 78.7633 174.405 79.4276 174.327 80.2156C174.294 80.5377 174.431 80.938 174.752 80.9825C174.992 81.0155 175.203 80.8302 175.364 80.6489C175.706 80.266 175.999 79.8405 176.235 79.3849C176.314 79.2318 176.384 79.0358 176.28 78.8986C176.204 78.7989 176.065 78.7748 175.94 78.7733ZM194.881 58.1183C194.82 57.3933 194.334 56.6801 193.63 56.4981C192.735 56.2676 191.867 56.8977 191.156 57.4889C190.946 57.6639 190.727 57.8518 190.638 58.1105C190.486 58.5494 190.758 59.0116 191.026 59.3904C191.332 59.8245 191.66 60.2607 192.107 60.5476C192.554 60.8345 193.151 60.9461 193.62 60.6967C193.859 60.5695 194.045 60.3619 194.207 60.1447C194.642 59.5609 194.942 58.8433 194.881 58.1183ZM192.895 59.9776C192.592 60.0228 192.277 59.9005 192.054 59.6903C191.719 59.3752 191.587 58.8685 191.704 58.4241C191.827 57.9563 192.219 57.5697 192.689 57.4544C193.159 57.3388 193.686 57.4993 194.012 57.857C194 57.9545 193.99 58.0527 193.98 58.1509C193.945 58.4845 193.91 58.8185 193.795 59.1313C193.646 59.5368 193.323 59.9134 192.895 59.9776ZM168.801 173.091C170.451 167.253 173.567 161.954 176.651 156.728C177.173 155.845 177.819 154.872 178.83 154.705C179.229 154.639 179.44 154.205 179.576 153.824C181.248 149.133 181.409 143.915 180.03 139.129C179.636 137.763 180.121 136.315 180.6 134.977L184.315 124.615C183.929 123.947 183.198 123.653 182.458 123.356C181.839 123.107 181.213 122.856 180.777 122.38C179.544 121.036 180.474 118.9 181.44 117.353L198.37 90.2399C199.061 89.1327 200.578 88.7854 201.85 89.0805C203.122 89.3755 204.208 90.1758 205.253 90.9571L217.601 100.18C219.81 101.83 222.249 103.937 222.121 106.691C222.051 108.215 221.179 109.57 220.335 110.841L210.55 125.587C209.284 127.494 209.131 129.812 208.976 132.14C208.907 133.194 208.837 134.249 208.664 135.27C207.82 140.248 204.505 144.371 201.328 148.321L201.13 148.568C201.069 148.643 201.009 148.718 200.949 148.793C197.661 152.888 194.372 157.46 194.187 162.708C193.967 168.962 190.995 175.071 186.21 179.106L190.374 169.005C191.364 166.603 192.281 163.614 190.624 161.613C189.875 160.708 188.741 160.229 187.653 159.783L181.187 157.129C180.741 156.947 180.282 156.76 179.8 156.758C178.298 156.749 177.404 158.378 176.795 159.751C174.688 164.501 171.996 168.993 168.801 173.091ZM190.064 159.374C191.172 159.784 192.733 160.034 193.259 158.974C195.801 153.849 198.414 148.624 202.462 144.58C204.795 142.249 206.225 139.138 207.034 135.941C207.843 132.743 208.072 129.432 208.298 126.142C207.316 126.499 207.231 127.825 207.235 128.87C207.244 131.174 206.841 133.48 206.051 135.644C205.885 136.097 205.663 136.587 205.22 136.778C204.778 136.969 204.126 136.585 204.274 136.127C205.417 132.606 205.842 128.854 205.518 125.166C205.417 124.023 205.205 122.8 204.392 121.99C204.48 123.795 204.568 125.608 204.385 127.406C204.068 130.517 202.953 133.483 201.847 136.408C201.704 136.788 201.531 137.202 201.166 137.381C200.801 137.559 200.235 137.276 200.33 136.882L201.986 130.038C202.896 126.275 203.792 122.227 202.382 118.62C201.672 118.573 201.505 119.588 201.569 120.296C202.003 125.149 200.661 129.966 199.333 134.654C199.178 135.201 198.629 135.885 198.203 135.509C198.019 135.347 198.01 135.067 198.025 134.822C198.109 133.443 198.487 132.109 198.864 130.776C198.981 130.362 199.099 129.948 199.207 129.534C200.205 125.71 200.46 121.695 199.952 117.776C199.078 118.897 198.707 120.319 198.356 121.697L196.279 129.877C195.339 133.575 194.139 137.64 190.881 139.626C190.622 139.784 190.321 139.931 190.025 139.861C189.658 139.774 189.45 139.394 189.296 139.049C187.218 134.367 186.958 128.904 188.583 124.045C188.682 123.75 188.382 123.442 188.072 123.418C187.762 123.393 187.472 123.562 187.218 123.742C184.551 125.623 183.529 129.032 182.681 132.184L181.553 136.375C181.388 136.988 181.222 137.605 181.188 138.238C181.135 139.2 181.387 140.142 181.637 141.078C181.695 141.295 181.752 141.512 181.807 141.728C182.892 146.082 182.401 150.812 180.446 154.851C180.158 155.446 180.919 155.988 181.539 156.218L190.064 159.374ZM194.277 119.375C193.832 119.069 193.356 118.72 193.218 118.197C193.007 117.396 193.77 116.592 194.591 116.484C195.412 116.377 196.216 116.773 196.896 117.245C197.854 117.91 199.067 116.896 199.785 115.976C198.817 115.397 197.894 114.498 197.855 113.371C197.817 112.243 199.188 111.17 200.1 111.833C200.454 112.091 200.883 112.248 201.306 112.404C201.94 112.637 202.564 112.867 202.912 113.423C203.308 114.054 203.167 114.909 202.764 115.536C202.362 116.164 201.741 116.614 201.136 117.049C202.005 117.136 202.851 117.446 203.57 117.941L204.354 115.657C204.415 115.48 204.481 115.295 204.62 115.17C204.889 114.929 205.307 115.003 205.651 115.112C206.554 115.399 207.439 115.846 208.035 116.582C208.63 117.318 208.879 118.388 208.462 119.238C208.046 120.089 206.871 120.542 206.075 120.029C205.91 119.923 205.744 119.781 205.578 119.639C205.134 119.258 204.691 118.878 204.263 119.182C205.57 120.201 206.469 121.731 206.721 123.369C210.838 117.098 214.911 110.797 218.94 104.468C219.324 103.864 219.635 102.912 219.008 102.564C216.333 101.08 213.968 99.0922 211.609 97.1091C208.631 94.606 205.663 92.1107 202.089 90.6451C201.863 90.552 201.615 90.4623 201.378 90.5246C201.129 90.5902 200.954 90.8063 200.798 91.0101C194.145 99.6945 188.173 108.902 182.956 118.518C182.229 119.86 183.203 121.459 184.134 122.668C184.6 123.272 185.499 123.911 186.007 123.342C186.646 122.624 187.695 122.214 188.602 122.535C189.508 122.855 190.072 124.033 189.579 124.858C189.223 125.455 189.92 126.119 190.53 126.453C191.748 127.12 192.998 127.73 194.273 128.28C194.45 128.356 194.657 128.431 194.83 128.345C194.994 128.262 195.061 128.066 195.112 127.89L196.525 123.028C196.757 122.228 196.913 121.191 196.227 120.719L194.277 119.375ZM219.553 105.747C219.366 105.682 219.195 105.87 219.084 106.035L208.505 121.872C208.22 122.298 207.928 122.741 207.845 123.247C207.763 123.752 207.948 124.34 208.408 124.565C209.17 124.938 209.967 124.155 210.456 123.462L220.286 109.53C221.016 108.495 220.398 107.081 219.774 105.98C219.719 105.885 219.657 105.782 219.553 105.747ZM189.766 126.895C189.58 126.759 189.301 126.84 189.145 127.009C188.99 127.179 188.926 127.411 188.867 127.634C188.722 128.182 188.577 128.736 188.556 129.303C188.534 129.87 188.637 130.433 188.74 130.991L189.753 136.498C189.796 136.729 189.845 136.974 190.009 137.142C190.173 137.311 190.492 137.347 190.624 137.153C192.124 134.96 193.645 132.724 194.429 130.186C194.526 129.87 194.555 129.427 194.245 129.31C192.653 128.711 191.142 127.896 189.766 126.895ZM201.466 113.307C200.958 112.823 200.287 112.514 199.589 112.443C198.953 112.378 198.586 113.271 198.877 113.841C199.167 114.411 199.808 114.693 200.402 114.931C200.821 115.099 201.329 115.257 201.694 114.992C202.219 114.611 201.936 113.754 201.466 113.307ZM197.289 119.688C197.496 119.541 197.523 119.24 197.465 118.993C197.247 118.06 196.225 117.584 195.307 117.311C194.952 117.206 194.51 117.132 194.26 117.405C194.052 117.633 194.096 118.011 194.276 118.262C194.456 118.513 194.738 118.668 195.01 118.815L196.428 119.578C196.697 119.723 197.04 119.866 197.289 119.688ZM205.354 116.329C205.054 116.73 205.085 117.315 205.335 117.749C205.586 118.184 206.019 118.485 206.477 118.691C206.633 118.762 206.806 118.824 206.974 118.79C207.119 118.761 207.244 118.663 207.332 118.545C207.659 118.107 207.5 117.448 207.125 117.051C206.75 116.653 206.216 116.454 205.703 116.268C205.614 116.236 205.511 116.205 205.43 116.253C205.423 116.258 205.415 116.263 205.409 116.268C205.388 116.286 205.371 116.307 205.354 116.329ZM63.201 152.752C63.3971 151.302 63.6721 149.706 64.8116 148.787C65.7205 148.055 66.9677 147.938 68.1346 147.916C71.9569 147.842 75.7918 148.463 79.3958 149.739C80.536 150.142 81.7292 150.674 82.3526 151.71C83.0272 152.832 82.863 154.247 82.6762 155.543L79.7817 175.653C81.7777 169.829 83.2107 163.812 84.054 157.714C84.4476 154.869 84.5848 151.605 82.5991 149.53C79.4996 146.29 79.5841 141.676 79.6701 136.984C79.7442 132.935 79.8195 128.829 77.8498 125.498C77.207 124.411 78.64 123.289 79.8317 122.872C85.0841 121.033 90.683 120.189 96.2445 120.398C97.2638 128.452 97.5396 136.6 97.067 144.705C96.961 146.522 99.539 146.991 101.349 146.791L164.126 139.83C164.44 139.795 164.78 139.748 165.002 139.524C165.262 139.262 165.275 138.851 165.271 138.482C165.123 123.773 164.7 109.068 164.002 94.3747C163.975 93.8013 163.902 93.143 163.427 92.8201C163.071 92.5781 162.603 92.6099 162.174 92.6515L117.366 96.9953C120.31 83.112 123.27 68.9685 121.928 54.8401C112.132 61.3709 99.493 61.322 87.7403 60.6303C87.2521 60.6018 86.7625 60.5725 86.2721 60.5432C74.9619 59.8671 63.1677 59.1625 52.9999 64.0549C58.3238 78.1703 63.7085 93.5778 59.2831 108C58.8917 109.276 58.4257 110.529 57.9602 111.782C57.2422 113.714 56.525 115.644 56.0813 117.654C55.3499 120.966 55.4597 124.675 57.4201 127.444C60.259 131.453 62.5149 136.012 63.0298 140.897C63.5179 145.533 62.4267 150.131 61.3369 154.724C60.1983 159.523 59.0611 164.315 59.7279 169.14C59.8409 169.957 60.0444 170.835 60.6838 171.355L63.201 152.752ZM67.6424 94.4944C68.8296 94.5363 69.3015 96.0268 69.4531 97.2051L70.6551 106.534C68.3084 105.318 65.0069 107.383 65.0744 110.026C63.0965 106.209 62.7963 101.834 62.499 97.5039C62.4341 96.562 62.3696 95.622 62.2881 94.6901C61.4148 84.7277 58.4124 75.0915 55.4285 65.5465C55.003 64.1854 56.8408 63.3028 58.2515 63.0956C67.5108 61.7382 76.8816 61.9258 86.2569 62.1133C90.5066 62.1982 94.757 62.2831 98.9982 62.2245C106.535 62.12 114.509 61.4065 120.622 56.9981C121.996 66.1581 120.128 75.3995 118.285 84.525C118.035 85.7593 117.786 86.9914 117.546 88.2209C115.527 98.541 114.154 109.541 118.015 119.321C118.178 119.733 117.623 120.044 117.189 120.135C114.013 120.797 110.729 120.94 107.508 120.556C106.126 120.391 104.758 120.13 103.391 119.869C102.36 119.673 101.33 119.476 100.294 119.321C92.4904 118.15 84.3453 119.365 77.2234 122.763C76.9379 122.899 76.5984 122.836 76.2996 122.732C74.8574 122.233 73.8284 120.9 73.315 119.463C72.8017 118.025 72.7283 116.474 72.6597 114.949L72.3724 108.554C72.3621 108.324 72.4221 108.013 72.6523 108.005C85.1278 107.616 97.5893 106.775 110.004 105.484C109.479 102.547 109.427 99.5255 109.851 96.572C110.118 94.7072 108.364 93.0073 106.497 92.7578C104.63 92.508 102.784 93.3539 101.233 94.424C100.654 94.8243 100.096 95.2591 99.5401 95.6935C98.609 96.4204 97.6786 97.1469 96.6426 97.71C95.9646 98.078 95.1492 98.3753 94.4371 98.0776C93.566 97.7137 93.274 96.6769 93.013 95.7517C92.9967 95.6935 92.9804 95.6361 92.9641 95.579C92.6242 94.3873 92.0634 93.2012 91.0763 92.4517C90.0896 91.7022 88.6006 91.5157 87.6265 92.2815C86.7936 92.9365 86.5304 94.0707 86.3907 95.1208C86.3784 95.2142 86.3662 95.308 86.3544 95.4025C86.2306 96.3681 86.1027 97.366 85.5263 98.1403C84.8939 98.9902 83.4824 99.3546 82.7885 98.554C81.4167 96.9701 79.0092 96.638 76.9891 97.194C74.9686 97.7496 73.2402 99.0332 71.564 100.291C70.5528 98.7082 70.4691 96.5776 71.3531 94.9207L71.3679 94.8933C71.5344 94.5823 71.7253 94.2249 71.5781 93.908C71.4873 93.7119 71.2864 93.5915 71.0877 93.5062C69.899 92.9966 68.3804 93.4321 67.6424 94.4944ZM103.364 121.237C104.028 121.37 104.845 121.666 104.887 122.343C105.278 128.794 110.406 134.592 116.71 136.02C123.014 137.448 130 134.561 133.676 129.244C137.351 123.927 137.639 116.541 134.625 110.823C131.393 104.691 123.538 101.434 116.915 103.48C116.607 102.126 116.642 100.694 117.014 99.3557C117.084 99.107 117.174 98.8472 117.374 98.6852C117.57 98.5265 117.835 98.4902 118.086 98.4602L136.742 96.2132C138.382 96.0156 140.027 95.8177 141.679 95.804C148.783 95.7458 155.881 95.0371 162.857 93.6908C163.941 108.245 164.451 122.843 164.386 137.437C164.383 138.129 164.172 139.05 163.48 139.07C151.738 139.412 140.089 140.956 128.435 142.501C120.606 143.54 112.774 144.578 104.911 145.252C103.159 145.402 101.394 145.534 99.6427 145.367C99.3255 145.337 98.9674 145.272 98.795 145.004C98.6909 144.842 98.6794 144.64 98.6705 144.448L97.6237 121.104C97.61 120.802 97.6286 120.439 97.8895 120.288C98.0626 120.187 98.2794 120.223 98.4755 120.262L103.364 121.237ZM71.2404 115.833C71.0547 117.045 70.846 118.409 71.6404 119.326C74.6031 122.748 77.6811 126.404 78.4684 130.861C78.8361 132.942 78.6782 135.084 78.5211 137.217C78.3228 139.905 78.1255 142.578 78.9814 145.099C79.0037 145.165 79.0266 145.231 79.05 145.297C79.2072 145.746 79.3673 146.204 79.3165 146.674C79.2579 147.212 78.7909 147.753 78.2571 147.661L72.0637 146.593C70.0124 146.239 67.8455 145.895 65.8969 146.627C65.5203 146.769 65.0866 146.52 64.885 146.172C64.683 145.824 64.6566 145.405 64.6388 145.003C64.6177 144.518 64.6021 144.029 64.5862 143.539C64.4861 140.455 64.3842 137.314 62.9568 134.612L58.4035 125.993C57.7311 124.72 57.0431 123.391 56.9968 121.952C56.9657 120.992 57.2251 120.048 57.4824 119.122L59.7538 110.939C60.232 109.217 60.738 107.439 61.8707 106.056C64.6222 110.724 64.8935 116.763 62.572 121.659C62.3574 122.112 63.0135 122.578 63.4813 122.398C63.9487 122.217 64.1863 121.705 64.3512 121.232C65.0114 119.335 65.243 117.337 65.4747 115.335C65.6626 113.715 65.8502 112.094 66.2657 110.523C66.52 109.561 66.8873 108.579 67.6301 107.917C68.3729 107.255 69.5847 107.028 70.3631 107.648C70.9587 108.122 71.1526 108.933 71.266 109.686C71.5647 111.673 71.5636 113.705 71.2619 115.692C71.2549 115.738 71.2475 115.785 71.2404 115.833ZM81.9275 99.6782C82.8404 100.377 83.7345 101.061 84.8302 100.934C86.2224 100.774 87.0901 99.3401 87.4945 97.998C87.5831 97.7044 87.6617 97.4038 87.7406 97.1024C88.0224 96.0271 88.3063 94.9433 89.0439 94.1345C89.2582 93.8991 89.5669 93.6804 89.8716 93.7727C90.1181 93.8472 90.2619 94.0971 90.3765 94.328C90.5388 94.6553 90.6926 94.9878 90.8461 95.3206C91.2794 96.2595 91.7131 97.1984 92.3425 98.0139C93.1946 99.1189 94.5213 99.9877 95.9083 99.8357C97.1485 99.6997 98.1178 98.8216 99.0623 97.9653C99.2558 97.7896 99.4485 97.6151 99.6424 97.4483C101.918 95.4863 104.881 94.3384 107.884 94.2557C107.479 95.268 107.749 96.3722 108.014 97.4557C108.078 97.7166 108.141 97.9765 108.195 98.2333C108.619 100.26 108.405 102.416 107.59 104.319L87.5316 105.864C82.849 106.224 78.1545 106.585 73.4611 106.42C73.1646 106.409 72.8606 106.395 72.5878 106.278C72.0726 106.058 71.7664 105.508 71.6556 104.959C71.4069 103.727 71.9747 102.444 72.835 101.529C73.695 100.613 74.8181 99.9958 75.9212 99.3943C77.0692 98.7686 78.3435 98.1214 79.6234 98.3886C80.4752 98.5666 81.2073 99.1266 81.9275 99.6782ZM119.91 128.897C116.871 128.834 114.239 126.355 113.336 123.453C113.152 122.86 113.535 122.21 114.064 121.884C114.592 121.559 115.232 121.482 115.848 121.413L120.3 120.913C118.947 118.281 117.982 115.449 117.448 112.538C117.4 112.274 117.356 111.997 117.44 111.742C117.586 111.293 118.069 111.058 118.516 110.908C122.133 109.692 126.477 111.168 128.604 114.336C130.731 117.505 130.453 122.085 127.956 124.971C126.875 126.221 125.458 127.143 123.966 127.853C122.694 128.457 121.319 128.926 119.91 128.897ZM134.33 113.254C134.871 115.039 135.027 116.918 135.101 118.782C133.887 118.598 132.661 118.493 131.433 118.47C131.192 115.334 129.106 112.501 126.362 110.965C123.619 109.428 120.307 109.096 117.208 109.622C117.181 109.18 117.1 108.719 117.02 108.258C116.807 107.041 116.595 105.824 117.382 104.96C117.857 104.438 118.581 104.229 119.275 104.1C122.435 103.511 125.806 104.128 128.553 105.798C131.3 107.469 133.398 110.177 134.33 113.254ZM112.043 123.136C112.039 123.194 112.034 123.251 112.031 123.305C112.01 123.739 112.212 124.136 112.412 124.53C112.466 124.635 112.519 124.74 112.568 124.845C112.8 125.344 112.912 126.001 112.525 126.393C111.588 127.338 110.761 128.391 110.063 129.525C109.891 129.805 109.467 129.828 109.183 129.661C108.899 129.494 108.724 129.195 108.56 128.91C107.523 127.103 106.461 125.213 106.332 123.134C106.316 122.875 106.344 122.562 106.573 122.442C106.675 122.389 106.794 122.387 106.908 122.387L111.543 122.373C111.653 122.373 111.77 122.374 111.866 122.428C112.094 122.558 112.068 122.858 112.043 123.136Z" fill="#0D0D0D"/>
</g>
<defs>
<clipPath id="clip0_870_20218">
<rect width="222" height="197" fill="white"/>
</clipPath>
</defs>
</svg>
