<svg width="25" height="24" viewBox="0 0 25 24" fill="none" xmlns="http://www.w3.org/2000/svg">
<rect width="24" height="24" transform="translate(0.5)" fill="white"/>
<path d="M12.5 15.5C14.71 15.5 16.5 13.71 16.5 11.5V6C16.5 3.79 14.71 2 12.5 2C10.29 2 8.5 3.79 8.5 6V11.5C8.5 13.71 10.29 15.5 12.5 15.5Z" stroke="#577D11" stroke-width="2" stroke-linecap="round" stroke-linejoin="round"/>
<path d="M4.84998 9.6499V11.3499C4.84998 15.5699 8.27998 18.9999 12.5 18.9999C16.72 18.9999 20.15 15.5699 20.15 11.3499V9.6499" stroke="#577D11" stroke-width="2" stroke-linecap="round" stroke-linejoin="round"/>
<path d="M11.11 6.43012C12.01 6.10012 12.99 6.10012 13.89 6.43012" stroke="#577D11" stroke-width="1.5" stroke-linecap="round" stroke-linejoin="round"/>
<path d="M11.7 8.54982C12.23 8.40982 12.78 8.40982 13.31 8.54982" stroke="#577D11" stroke-width="1.5" stroke-linecap="round" stroke-linejoin="round"/>
<path d="M12.5 19V22" stroke="#577D11" stroke-width="1.5" stroke-linecap="round" stroke-linejoin="round"/>
</svg>
