<svg width="25" height="25" viewBox="0 0 25 25" fill="none" xmlns="http://www.w3.org/2000/svg">
<path d="M18.64 22.1198C17.76 22.3798 16.72 22.4998 15.5 22.4998H9.49998C8.27998 22.4998 7.23999 22.3798 6.35999 22.1198C6.57999 19.5198 9.24998 17.4697 12.5 17.4697C15.75 17.4697 18.42 19.5198 18.64 22.1198Z" stroke="#4A4A4A" stroke-width="1.5" stroke-linecap="round" stroke-linejoin="round"/>
<path d="M15.5 2.5H9.5C4.5 2.5 2.5 4.5 2.5 9.5V15.5C2.5 19.28 3.64 21.35 6.36 22.12C6.58 19.52 9.25 17.47 12.5 17.47C15.75 17.47 18.42 19.52 18.64 22.12C21.36 21.35 22.5 19.28 22.5 15.5V9.5C22.5 4.5 20.5 2.5 15.5 2.5ZM12.5 14.67C10.52 14.67 8.92 13.06 8.92 11.08C8.92 9.10002 10.52 7.5 12.5 7.5C14.48 7.5 16.08 9.10002 16.08 11.08C16.08 13.06 14.48 14.67 12.5 14.67Z" stroke="#4A4A4A" stroke-width="1.5" stroke-linecap="round" stroke-linejoin="round"/>
<path d="M16.08 11.08C16.08 13.06 14.48 14.67 12.5 14.67C10.52 14.67 8.91998 13.06 8.91998 11.08C8.91998 9.10002 10.52 7.5 12.5 7.5C14.48 7.5 16.08 9.10002 16.08 11.08Z" stroke="#4A4A4A" stroke-width="1.5" stroke-linecap="round" stroke-linejoin="round"/>
</svg>
